<?xml version="1.0" encoding="UTF-8"?>
<svg version="1.1" xmlns="http://www.w3.org/2000/svg" width="1710" height="578">
<path d="M0 0 C0.73306765 -0.00467997 1.46613531 -0.00935994 2.22141713 -0.01418173 C4.67417882 -0.02613151 7.12638166 -0.01667368 9.57914734 -0.00723267 C11.34075241 -0.01129933 13.10235494 -0.01664175 14.86395264 -0.02316284 C19.65497196 -0.03685797 24.44579769 -0.03152157 29.23682046 -0.02202559 C34.28006767 -0.01440825 39.32329874 -0.02148332 44.36654663 -0.02618408 C52.86485236 -0.03164912 61.36308004 -0.02444453 69.8613739 -0.01016235 C79.60331296 0.00602384 89.34506225 0.0009821 99.08699638 -0.01564157 C107.49773506 -0.02940633 115.90841762 -0.03109992 124.31916398 -0.02332556 C129.32018152 -0.01871182 134.32111113 -0.01784281 139.32212257 -0.02793503 C205.5409823 -0.14299777 282.37800614 6.55676054 333.62870789 53.38095093 C334.4498407 54.11958374 335.27097351 54.85821655 336.11698914 55.61923218 C355.15998093 73.60976156 364.3052848 98.6611518 365.62870789 124.38095093 C366.28032447 147.5293228 358.47831985 166.87853354 343.62870789 184.38095093 C343.11437195 185.0177478 342.60003601 185.65454468 342.07011414 186.31063843 C306.46457718 229.73202496 238.36546452 246.13727163 185.62870789 251.38095093 C170.70201371 252.76145528 155.72016827 252.51199862 140.7459774 252.48234487 C137.00510722 252.47602099 133.26423591 252.47550048 129.52336121 252.47431946 C122.4654842 252.47123244 115.407623 252.46305512 108.3497529 252.45296997 C98.79407723 252.43961702 89.23839713 252.43428765 79.68271446 252.42846775 C64.66470047 252.41911295 49.6467198 252.39917667 34.62870789 252.38095093 C34.62870789 224.99095093 34.62870789 197.60095093 34.62870789 169.38095093 C47.30901185 168.80457347 59.87440919 168.24283764 72.54667664 168.17001343 C73.94945983 168.1569523 75.35223609 168.14312684 76.75500488 168.12860107 C82.571816 168.06862514 88.38858142 168.01307726 94.20561218 167.97958374 C133.07302977 167.93295913 133.07302977 167.93295913 167.94120789 152.13095093 C173.75432104 146.18264909 177.73165074 139.26323692 177.94120789 130.88095093 C177.81460583 120.38564049 173.9766384 111.84192652 166.62870789 104.38095093 C128.36815753 70.97032949 14.9532528 87.54899045 -4.37129211 87.38095093 C-4.37129211 170.21095093 -4.37129211 253.04095093 -4.37129211 338.38095093 C-57.17129211 338.38095093 -109.97129211 338.38095093 -164.37129211 338.38095093 C-165.25795887 277.21437933 -165.25795887 277.21437933 -165.44551086 251.57040405 C-165.48858045 245.71109672 -165.53303001 239.85180232 -165.57978821 233.99252319 C-165.58849192 232.89105929 -165.58849192 232.89105929 -165.59737146 231.76734358 C-165.69291769 219.93024342 -165.86627188 208.09550757 -166.06865363 196.25980691 C-166.27479902 184.10208847 -166.39666735 171.94560254 -166.441239 159.78620833 C-166.47135126 152.28868881 -166.56619325 144.79784754 -166.74545439 137.30238654 C-166.87614024 131.54261429 -166.88921262 125.78706409 -166.8596611 120.02610588 C-166.86569169 117.67197805 -166.90918371 115.31758735 -166.99381256 112.96497345 C-167.49017322 98.44890807 -167.49017322 98.44890807 -164.37129211 92.38095093 C-158.92441423 86.82743155 -151.95492261 83.59731732 -144.90972447 80.51426542 C-141.76646772 79.11091961 -138.9192272 77.45276152 -135.99238586 75.64657593 C-134.26485843 74.64078828 -132.53699942 73.63556992 -130.80879211 72.63095093 C-121.82036317 67.39665333 -112.84286051 62.14406658 -103.87129211 56.88095093 C-94.07860046 51.13653865 -84.27800147 45.40599151 -74.46894836 39.68954468 C-65.98142858 34.74130937 -57.50579763 29.77294469 -49.0316925 24.80178833 C-39.31997285 19.10488089 -29.59926686 13.42367207 -19.86933899 7.75790405 C-18.95217102 7.22358765 -18.03500305 6.68927124 -17.09004211 6.13876343 C-16.29533508 5.67615112 -15.50062805 5.21353882 -14.68183899 4.73690796 C-12.3487015 3.41417338 -12.3487015 3.41417338 -10.18758869 1.82001305 C-6.59981531 -0.0132558 -4.0240069 0.00347252 0 0 Z " fill="#000000" transform="translate(683.3712921142578,128.61904907226563)"/>
<path d="M0 0 C2.51731756 0.00374477 5.03463662 0.00658478 7.55195618 0.00857544 C14.07661185 0.01609687 20.60117396 0.03564191 27.12579346 0.0579834 C33.82408458 0.07869416 40.52238897 0.08763027 47.22070312 0.09765625 C60.28910169 0.11890249 73.35743642 0.15249162 86.42578125 0.1953125 C82.76632568 3.17378338 79.10265395 5.69326409 75.03125 8.0859375 C74.43903152 8.43541443 73.84681305 8.78489136 73.23664856 9.1449585 C71.36431671 10.24873282 69.4888777 11.34709666 67.61328125 12.4453125 C66.33507637 13.1975598 65.05707945 13.95016058 63.77929688 14.703125 C60.66385156 16.53794609 57.54559818 18.36793219 54.42578125 20.1953125 C98.14332635 24.11184155 98.14332635 24.11184155 136.1706543 6.11816406 C141.05848929 1.95051348 144.43834597 -0.31051703 150.98193359 -0.25878906 C152.26280853 -0.25848694 153.54368347 -0.25818481 154.8633728 -0.25787354 C156.24616123 -0.23745162 157.62894319 -0.21658771 159.01171875 -0.1953125 C160.43803105 -0.18784424 161.86435367 -0.18215407 163.29067993 -0.17816162 C167.02932487 -0.16295098 170.76733982 -0.12371007 174.5057373 -0.0793457 C178.32665487 -0.03829335 182.14767507 -0.02012946 185.96875 0 C193.45471306 0.0427899 200.9401586 0.11098415 208.42578125 0.1953125 C204.82671082 3.11737658 201.20872523 5.66779992 197.25 8.0859375 C196.67997757 8.43541443 196.10995514 8.78489136 195.5226593 9.1449585 C193.72146187 10.24826668 191.91744063 11.34685598 190.11328125 12.4453125 C188.88327298 13.19760519 187.65345338 13.95020644 186.42382812 14.703125 C183.42665111 16.53742508 180.4269249 18.36750773 177.42578125 20.1953125 C221.31939394 23.88883039 221.31939394 23.88883039 259.17651367 5.09643555 C263.73317236 1.24506236 266.84530972 -0.18090331 272.8684082 -0.14526367 C274.78983391 -0.14492378 274.78983391 -0.14492378 276.75007629 -0.14457703 C278.13807529 -0.12925943 279.52607068 -0.11361148 280.9140625 -0.09765625 C282.34180759 -0.09205676 283.76955847 -0.08778833 285.1973114 -0.08479309 C288.94406213 -0.07337199 292.69046061 -0.0439289 296.43707275 -0.01068115 C300.26464066 0.02007908 304.09226583 0.03372492 307.91992188 0.04882812 C315.42203509 0.08094389 322.9238587 0.13210653 330.42578125 0.1953125 C327.40129311 3.31568076 324.55919212 5.47047967 320.76953125 7.62109375 C319.66351562 8.25337891 318.5575 8.88566406 317.41796875 9.53710938 C316.2540299 10.19422948 315.08996697 10.85112985 313.92578125 11.5078125 C311.66520881 12.79529945 309.40479141 14.08305866 307.14453125 15.37109375 C305.47970703 16.31202881 305.47970703 16.31202881 303.78125 17.27197266 C301.4948076 18.58255133 299.23018266 19.90696705 296.9765625 21.27099609 C295.89761719 21.9202002 294.81867187 22.5694043 293.70703125 23.23828125 C292.25393555 24.12616333 292.25393555 24.12616333 290.77148438 25.03198242 C289.99740234 25.41588135 289.22332031 25.79978027 288.42578125 26.1953125 C287.76578125 25.8653125 287.10578125 25.5353125 286.42578125 25.1953125 C286.75578125 24.8653125 287.08578125 24.5353125 287.42578125 24.1953125 C241.524803 20.68741308 241.524803 20.68741308 202.42578125 41.1953125 C201.76578125 41.5253125 201.10578125 41.8553125 200.42578125 42.1953125 C218.90578125 42.5253125 237.38578125 42.8553125 256.42578125 43.1953125 C252.99866723 46.62242652 249.9198647 48.88090361 245.796875 51.234375 C244.85050926 51.78476944 244.85050926 51.78476944 243.88502502 52.34628296 C241.88112324 53.5101848 239.8724229 54.66548381 237.86328125 55.8203125 C235.85167212 56.98410503 233.84107857 58.1496318 231.83082581 59.31576538 C230.58309729 60.0387408 229.33438742 60.76002592 228.08457947 61.47940063 C225.47456 62.9847562 222.93425486 64.52299676 220.42578125 66.1953125 C217.89053345 66.38630676 217.89053345 66.38630676 214.81884766 66.30786133 C213.6655899 66.28577103 212.51233215 66.26368073 211.3241272 66.24092102 C210.07118866 66.21169052 208.81825012 66.18246002 207.52734375 66.15234375 C204.85282853 66.12875368 202.17845715 66.10836835 199.50390625 66.09179688 C195.30358403 66.06249177 191.10606369 66.01622878 186.90722656 65.8972168 C168.80718777 65.4086384 155.74488574 67.088252 140.89891052 78.33859253 C130.55023827 86.10793425 123.44214339 89.38813081 110.375 88.9765625 C108.98113802 88.9615929 107.58723319 88.95022826 106.1933136 88.94226074 C102.57055013 88.91209335 98.95046079 88.8338607 95.32873535 88.74462891 C91.61470703 88.66195397 87.90023526 88.62607773 84.18554688 88.5859375 C76.93108839 88.50081125 69.6788131 88.36476172 62.42578125 88.1953125 C65.64249974 84.8664951 68.97601929 82.43915033 72.94140625 80.0859375 C73.86515045 79.52842804 73.86515045 79.52842804 74.80755615 78.95965576 C76.76040378 77.78274042 78.717963 76.61393643 80.67578125 75.4453125 C82.00683062 74.6450636 83.33756331 73.84428772 84.66796875 73.04296875 C87.91694036 71.08763328 91.1701597 69.13955396 94.42578125 67.1953125 C86.71219164 66.86058636 79.00052365 66.63598671 71.28125 66.48120117 C68.6662809 66.41656473 66.05176709 66.32841485 63.43847656 66.21459961 C41.90835192 65.30167606 29.34903542 69.7143709 12.29150391 82.5546875 C4.63223386 88.06365497 -2.57951866 88.40131367 -11.75762939 88.77578735 C-16.11993097 88.95769256 -20.47514743 89.25078939 -24.83203125 89.53125 C-25.68489716 89.58374405 -26.53776306 89.6362381 -27.41647339 89.69032288 C-60.85932905 91.82540143 -98.46981881 102.91604366 -125.57421875 123.1953125 C-126.51652344 123.89269531 -127.45882812 124.59007812 -128.4296875 125.30859375 C-140.83092715 134.93879778 -150.73109508 147.41897751 -153.57421875 163.1953125 C-155.37188398 180.52208583 -151.04494036 195.12176916 -140.42578125 209.00390625 C-117.19860908 236.20516269 -79.34727503 248.59914392 -44.78497314 251.97293091 C-37.64257807 252.46762374 -30.47323644 252.44096173 -23.31640625 252.51171875 C-21.75788912 252.53016003 -20.19937663 252.54899861 -18.64086914 252.5682373 C-12.91037392 252.63622623 -7.17979006 252.69657133 -1.44921875 252.7578125 C11.37953125 252.9021875 24.20828125 253.0465625 37.42578125 253.1953125 C37.42578125 211.9453125 37.42578125 170.6953125 37.42578125 128.1953125 C85.27578125 128.1953125 133.12578125 128.1953125 182.42578125 128.1953125 C182.42578125 197.8253125 182.42578125 267.4553125 182.42578125 339.1953125 C126.75833476 339.23561553 126.75833476 339.23561553 103.31054688 339.24414062 C97.95418291 339.2461038 92.59781898 339.24811829 87.24145508 339.25024414 C86.57028949 339.25050789 85.8991239 339.25077164 85.20761997 339.25104338 C74.42727008 339.25537126 63.64692563 339.26324302 52.86657894 339.2724653 C41.77086673 339.28187691 30.67515748 339.2873092 19.57944149 339.28940099 C13.360726 339.29069567 7.14202276 339.29370171 0.92331123 339.30104256 C-4.95106382 339.30791958 -10.82542179 339.30990617 -16.69980049 339.30842018 C-18.8356142 339.30869134 -20.97142859 339.31062622 -23.10723877 339.31451797 C-43.16955372 339.34922637 -63.29334693 339.03560131 -83.26171875 336.9453125 C-84.50099121 336.81672852 -85.74026367 336.68814453 -87.01708984 336.55566406 C-152.31427814 329.42754544 -219.02132001 308.22405442 -267.57421875 262.1953125 C-268.07276367 261.72931641 -268.57130859 261.26332031 -269.08496094 260.78320312 C-286.3521039 244.55523776 -299.36760922 225.24495651 -305.57421875 202.1953125 C-305.89261719 201.02613281 -306.21101563 199.85695313 -306.5390625 198.65234375 C-313.03860881 170.22806056 -307.82458035 141.3640096 -293.57421875 116.1953125 C-283.45927635 100.4323237 -270.29029393 86.67012555 -255.57421875 75.1953125 C-255.03442383 74.77378906 -254.49462891 74.35226563 -253.93847656 73.91796875 C-202.26429798 33.9083233 -136.92464312 13.26648532 -72.94921875 4.4453125 C-72.22831055 4.34417145 -71.50740234 4.2430304 -70.76464844 4.13882446 C-47.24929067 0.88187483 -23.71804696 -0.10617455 0 0 Z M-33.15551758 35.39547729 C-35.45354985 37.1055188 -37.79079476 38.62867003 -40.23632812 40.11743164 C-41.33783203 40.80313232 -42.43933594 41.48883301 -43.57421875 42.1953125 C-43.57421875 42.5253125 -43.57421875 42.8553125 -43.57421875 43.1953125 C-36.37590377 43.50090361 -29.17905402 43.72963073 -21.97549152 43.86887074 C-18.62663505 43.93583706 -15.2856911 44.03342057 -11.9387207 44.17602539 C6.44137838 44.93855625 18.67644251 43.18817571 33.3931427 31.74551392 C36.22245389 29.58772634 39.1902991 27.7785677 42.23828125 25.9453125 C43.65350594 25.05887719 45.05938627 24.15530897 46.42578125 23.1953125 C46.42578125 22.8653125 46.42578125 22.5353125 46.42578125 22.1953125 C39.27971822 21.84180362 32.13564319 21.57838199 24.98249054 21.41812992 C21.65611063 21.34102387 18.34042611 21.22874946 15.01660156 21.0637207 C-4.82936207 20.1045242 -17.27190402 23.28565308 -33.15551758 35.39547729 Z M87.74368286 35.48822021 C85.4887347 37.14894843 83.18787702 38.63088464 80.79663086 40.08642578 C79.68425049 40.7823584 78.57187012 41.47829102 77.42578125 42.1953125 C77.42578125 42.5253125 77.42578125 42.8553125 77.42578125 43.1953125 C121.67720022 47.14156122 121.67720022 47.14156122 160.30004883 29.11816406 C161.00154053 28.48362305 161.70303223 27.84908203 162.42578125 27.1953125 C164.08500908 25.85273343 165.74983764 24.51696622 167.42578125 23.1953125 C160.13181056 22.86576033 152.83952788 22.61968328 145.53952694 22.46994209 C142.1453985 22.39791003 138.76036606 22.29297258 135.3684082 22.13916016 C116.00570755 21.28434236 103.36796785 23.71993689 87.74368286 35.48822021 Z M-15.57421875 61.1953125 C-17.2358974 62.53485706 -18.90119656 63.86996262 -20.57421875 65.1953125 C-13.22803846 65.47707971 -5.88307528 65.68838584 1.46747208 65.81705856 C4.88345289 65.87891653 8.29566328 65.96231031 11.70947266 66.10058594 C29.51922382 66.76820616 42.02181926 65.7047309 56.41888428 54.68766785 C59.5239074 52.37873126 62.83687369 50.45469843 66.17578125 48.5078125 C67.9448089 47.43439497 69.70360027 46.3423856 71.42578125 45.1953125 C71.42578125 44.8653125 71.42578125 44.5353125 71.42578125 44.1953125 C24.71714939 40.67471623 24.71714939 40.67471623 -15.57421875 61.1953125 Z M102.42578125 65.1953125 C147.28251189 69.08107702 147.28251189 69.08107702 186.20825195 50.20996094 C187.30592896 49.21270996 187.30592896 49.21270996 188.42578125 48.1953125 C190.08424928 46.85179497 191.7487738 45.51561609 193.42578125 44.1953125 C143.73525683 40.66680908 143.73525683 40.66680908 102.42578125 65.1953125 Z " fill="#000000" transform="translate(308.57421875,128.8046875)"/>
<path d="M0 0 C1.58909418 0.150206 3.17823205 0.29995043 4.76741028 0.44926453 C8.94596511 0.84308547 13.12391466 1.24299586 17.30175781 1.64428711 C22.25555546 2.11892249 27.21006766 2.58602895 32.16446114 3.05439568 C36.23321159 3.43939662 40.30173986 3.82650117 44.36984253 4.21829224 C52.1718553 4.96861146 59.97450425 5.69679183 67.78369141 6.36865234 C69.94528538 6.55824346 72.10680846 6.74862103 74.26830482 6.93932152 C76.24055489 7.11027419 78.2136758 7.27108795 80.18681335 7.43147278 C91.36804942 8.42135025 103.12375125 9.56264871 111.64453125 17.57421875 C119.05545643 26.91401487 122.20142453 39.12776202 125.95703125 50.26171875 C126.22386719 51.05255859 126.49070312 51.84339844 126.765625 52.65820312 C128.64453125 58.32953331 128.64453125 58.32953331 128.64453125 60.57421875 C133.62087418 60.67473531 138.59659862 60.74644453 143.57373047 60.79394531 C145.25905679 60.81379151 146.94431686 60.84087768 148.62939453 60.87597656 C165.05054983 61.20890398 178.06172166 58.67996714 192.6953125 50.9765625 C230.9254498 31.74337389 274.41188747 21.26948774 316.64453125 16.57421875 C317.62196289 16.46239258 318.59939453 16.35056641 319.60644531 16.23535156 C362.45536816 11.38250821 427.69881792 5.81730844 465.64453125 29.57421875 C467.10851674 30.4571538 468.57345013 31.33851809 470.0390625 32.21875 C482.80266658 39.94834352 495.21309694 48.19120105 507.59765625 56.5078125 C508.64501953 57.19472168 509.69238281 57.88163086 510.77148438 58.58935547 C513.64453125 60.57421875 513.64453125 60.57421875 515.87695312 62.54736328 C519.25460835 65.40974234 521.32181867 66.66985606 525.83203125 66.34375 C527.75559742 65.94937869 529.67903663 65.55124876 531.58898926 65.0954895 C538.08954226 63.55659317 544.50203158 62.94546603 551.16015625 62.4765625 C552.27217407 62.39548248 553.38419189 62.31440247 554.52990723 62.23086548 C557.98431315 61.98381829 561.43928728 61.74673149 564.89453125 61.51171875 C568.37301542 61.2712471 571.85122563 61.02794174 575.32904053 60.77796936 C577.47466904 60.62408537 579.62069365 60.47558174 581.76715088 60.33372498 C590.81892412 59.69046977 600.12609707 58.88694315 608.64453125 55.57421875 C609.87090695 58.02697016 609.75868439 59.62479685 609.7421875 62.36328125 C609.73896484 63.30429688 609.73574219 64.2453125 609.73242188 65.21484375 C609.72404297 66.1996875 609.71566406 67.18453125 609.70703125 68.19921875 C609.70251953 69.19179687 609.69800781 70.184375 609.69335938 71.20703125 C609.68155268 73.66282333 609.66423814 76.11848109 609.64453125 78.57421875 C611.48954224 78.28780518 611.48954224 78.28780518 613.37182617 77.99560547 C619.36590137 77.33797463 625.05207598 78.06867781 631.0078125 78.83203125 C632.19384567 78.97696014 633.37987885 79.12188904 634.60185242 79.27120972 C637.11466584 79.58074899 639.62685388 79.8954026 642.13842773 80.21484375 C645.87787571 80.68917818 649.61922725 81.14478896 653.36132812 81.59765625 C722.17982244 90.08187913 787.94220307 109.57825957 832.27416992 166.35839844 C837.62109077 173.32003742 842.63820545 180.40364742 847.33203125 187.82421875 C847.83694092 188.62190674 848.34185059 189.41959473 848.86206055 190.24145508 C851.14847789 193.92418785 853.23368314 197.44893188 854.64453125 201.57421875 C852.66453125 202.56421875 850.68453125 203.55421875 848.64453125 204.57421875 C848.35843994 204.08131348 848.07234863 203.5884082 847.77758789 203.08056641 C842.09839095 193.36391283 836.51783491 184.65726206 828.64453125 176.57421875 C827.86078125 175.56359375 827.07703125 174.55296875 826.26953125 173.51171875 C786.13058396 128.59432535 710.71429688 115.25605813 654.18450069 111.78579569 C644.93067469 111.29776168 635.65129878 111.42966237 626.38781738 111.43377686 C624.04328027 111.43118905 621.69874359 111.42817474 619.35420752 111.42477345 C613.61205645 111.41758725 607.86991649 111.41500318 602.12776125 111.4144444 C595.24113289 111.41352527 588.35451298 111.40684139 581.46788829 111.40009758 C564.82436337 111.38408723 548.18083941 111.37813887 531.53730818 111.37334883 C523.64785487 111.37100677 515.75840228 111.36740335 507.86894954 111.36365345 C480.81083996 111.35081911 453.75273078 111.34010239 426.69461823 111.33665085 C424.99801631 111.33642922 423.30141439 111.33620744 421.60481247 111.3359855 C419.90432173 111.33576486 418.20383099 111.33554438 416.50334024 111.33532405 C413.0923961 111.33488152 409.68145196 111.3344344 406.27050781 111.33398438 C405.00194713 111.33382029 405.00194713 111.33382029 403.70775896 111.33365289 C376.33755886 111.33002906 348.96738535 111.31413394 321.59719542 111.29079401 C292.59505478 111.26610814 263.59292931 111.25247386 234.59077787 111.25128293 C231.39677651 111.25111151 228.20277516 111.25089609 225.0087738 111.2506485 C223.8292712 111.25056485 223.8292712 111.25056485 222.62594025 111.2504795 C210.05660184 111.24933631 197.48729104 111.23837683 184.9179619 111.22376144 C172.24172049 111.20927866 159.56551386 111.20622493 146.88926643 111.21420142 C140.04294407 111.21822157 133.19671836 111.21735542 126.35040665 111.20314407 C89.59742106 111.13127315 53.10829731 111.63390142 16.76953125 117.69921875 C14.27149439 118.10001771 11.7727885 118.49639398 9.27389526 118.89181519 C7.76942587 119.13143143 6.26553678 119.37474394 4.76248169 119.62307739 C-0.26132067 120.44538334 -5.29188599 121.05266024 -10.35546875 121.57421875 C-10.28585938 120.25808594 -10.21625 118.94195312 -10.14453125 117.5859375 C-9.5929993 104.49466876 -9.5929993 104.49466876 -14.9453125 92.765625 C-16.50090543 90.34820773 -16.96169248 88.40043579 -17.35546875 85.57421875 C-18.48984375 85.53296875 -19.62421875 85.49171875 -20.79296875 85.44921875 C-28.08183233 84.50747177 -33.46705923 80.0769531 -37.85546875 74.38671875 C-40.66239195 70.43363524 -41.48041356 67.32226993 -41.51660156 62.49536133 C-41.52620911 61.4603096 -41.53581665 60.42525787 -41.54571533 59.35884094 C-41.54996521 58.24011093 -41.55421509 57.12138092 -41.55859375 55.96875 C-41.56429382 54.81557785 -41.5699939 53.6624057 -41.5758667 52.47428894 C-41.58532017 50.03063882 -41.59185205 47.58697592 -41.59570312 45.14331055 C-41.60538515 41.41887893 -41.63639642 37.69500464 -41.66796875 33.97070312 C-41.67450128 31.59505536 -41.67975077 29.21940364 -41.68359375 26.84375 C-41.69594055 25.73514114 -41.70828735 24.62653229 -41.7210083 23.48432922 C-41.70043535 16.28086175 -41.27966159 10.01132444 -36.41796875 4.296875 C-35.39703125 3.47509766 -35.39703125 3.47509766 -34.35546875 2.63671875 C-33.67484375 2.07082031 -32.99421875 1.50492187 -32.29296875 0.921875 C-23.97533551 -4.86357554 -9.51888349 -0.92276763 0 0 Z " fill="#AD7128" transform="translate(207.35546875,1.42578125)"/>
<path d="M0 0 C0 111.54 0 223.08 0 338 C-52.8 338 -105.6 338 -160 338 C-160.60454551 276.67221626 -160.60454551 276.67221626 -160.73242188 250.99414062 C-160.761789 245.12670262 -160.79209595 239.25927063 -160.82397461 233.3918457 C-160.82793084 232.65648144 -160.83188707 231.92111717 -160.83596319 231.16346914 C-160.90116614 219.2984809 -161.01939918 207.43458548 -161.15729194 195.5702448 C-161.29767481 183.38986588 -161.38090355 171.2100581 -161.41132742 159.02890342 C-161.43188969 151.51451286 -161.49676077 144.00320948 -161.618747 136.48976975 C-161.70758326 130.72361453 -161.7168029 124.9594271 -161.69661522 119.19272423 C-161.70073888 116.83068984 -161.73054301 114.46853768 -161.78808212 112.10720062 C-162.19103025 94.71623074 -162.19103025 94.71623074 -158.54073453 90.19094157 C-155.01880835 87.198032 -151.1495694 85.36570678 -146.85251057 83.7417649 C-144.09931148 82.63935475 -141.64548639 81.10750321 -139.12890625 79.55078125 C-137.27399753 78.47039209 -135.41851926 77.39098023 -133.5625 76.3125 C-131.48045365 75.10028635 -129.39842285 73.888046 -127.31640625 72.67578125 C-125.74656982 71.7623999 -125.74656982 71.7623999 -124.14501953 70.83056641 C-119.09444825 67.89086889 -114.04735254 64.94521931 -109 62 C-107.00001772 60.83330295 -105.0000177 59.66663633 -103 58.5 C-101.515 57.63375 -101.515 57.63375 -100 56.75 C-67 37.5 -67 37.5 -63.99951172 35.74975586 C-62.00109209 34.58398396 -60.00271963 33.4181312 -58.00439453 32.25219727 C-52.98060014 29.32117301 -47.95597368 26.39159316 -42.9296875 23.46484375 C-41.92768311 22.88105957 -40.92567871 22.29727539 -39.89331055 21.69580078 C-37.89778617 20.53331865 -35.90186179 19.37152288 -33.90551758 18.21044922 C-28.82029754 15.24809542 -23.75243231 12.26021137 -18.70703125 9.23046875 C-17.69592285 8.62533447 -16.68481445 8.0202002 -15.64306641 7.39672852 C-13.71357426 6.24008516 -11.78730344 5.07804611 -9.86474609 3.90991211 C-9.00574707 3.39565674 -8.14674805 2.88140137 -7.26171875 2.3515625 C-6.50850342 1.89604004 -5.75528809 1.44051758 -4.97924805 0.97119141 C-3 0 -3 0 0 0 Z " fill="#000000" transform="translate(1223,129)"/>
<path d="M0 0 C16 0 16 0 19.4765625 2.46484375 C20.60546875 4.11328125 20.60546875 4.11328125 21.625 5.9375 C22.48800224 7.23066745 23.35540498 8.5209061 24.2265625 9.80859375 C24.66774414 10.4929248 25.10892578 11.17725586 25.56347656 11.88232422 C28.10944636 15.63550948 31.07630834 19.03881282 34 22.5 C38.48483491 27.90550973 42.91078269 33.35182958 47.25 38.875 C47.70375 39.45185547 48.1575 40.02871094 48.625 40.62304688 C50.51057922 43.03530794 52.30049143 45.45073715 54 48 C54.33 32.16 54.66 16.32 55 0 C60.28 0 65.56 0 71 0 C71 24.75 71 49.5 71 75 C55 75 55 75 50.7265625 71.73828125 C49.64100824 70.30063745 48.60763322 68.82236082 47.625 67.3125 C47.05595947 66.53592041 46.48691895 65.75934082 45.90063477 64.95922852 C44.75690479 63.39262304 43.63363732 61.8108458 42.53271484 60.21386719 C40.44328938 57.19588214 38.19891756 54.32890989 35.9375 51.4375 C35.1640625 50.41914062 34.390625 49.40078125 33.59375 48.3515625 C29.91016916 43.54472412 26.0493416 38.87800306 22.20092773 34.20288086 C21.66927002 33.55456299 21.1376123 32.90624512 20.58984375 32.23828125 C19.87622681 31.3726355 19.87622681 31.3726355 19.14819336 30.48950195 C18 29 18 29 17 27 C16.67 42.84 16.34 58.68 16 75 C10.72 75 5.44 75 0 75 C0 50.25 0 25.5 0 0 Z " fill="#AD7128" transform="translate(1088,503)"/>
<path d="M0 0 C8.86875 -0.185625 17.7375 -0.37125 26.875 -0.5625 C31.04552002 -0.68540405 31.04552002 -0.68540405 35.30029297 -0.81079102 C37.53088485 -0.83710299 39.7615203 -0.86003073 41.9921875 -0.87890625 C43.69677124 -0.9479718 43.69677124 -0.9479718 45.43579102 -1.01843262 C52.0636989 -1.02489537 55.57140211 -0.13306763 60.56298828 4.36743164 C62.04727432 5.90654456 63.52674158 7.45032802 65 9 C65.73952911 9.53691467 66.47905823 10.07382935 67.24099731 10.62701416 C69 12 69 12 69.58105469 14.6003418 C69.67964616 17.96437826 69.74263949 21.32190607 69.75 24.6875 C69.79898438 25.84701172 69.84796875 27.00652344 69.8984375 28.20117188 C69.9557554 36.60302073 69.9557554 36.60302073 67.30664062 40.47509766 C65.29809732 42.48690461 63.22765339 44.23768437 61 46 C59.6521308 47.31863725 58.3146373 48.64822919 57 50 C59.27055081 53.08354148 61.54149021 56.16679656 63.8125 59.25 C64.45509766 60.12269531 65.09769531 60.99539063 65.75976562 61.89453125 C66.38173828 62.73886719 67.00371094 63.58320312 67.64453125 64.453125 C68.21534424 65.22817383 68.78615723 66.00322266 69.37426758 66.80175781 C70.461911 68.27242028 71.57420399 69.72515494 72.7097168 71.15917969 C74 73 74 73 74 75 C58.14644831 77.21785438 58.14644831 77.21785438 53.1171875 73.67285156 C48.69494165 69.03430021 45.60000832 63.238675 42.77734375 57.52514648 C40.13934979 52.70903814 40.13934979 52.70903814 35.46069336 50.19506836 C32.46542559 49.88840573 29.63671413 49.85565271 26.625 49.9375 C23.11875 49.958125 19.6125 49.97875 16 50 C16 58.25 16 66.5 16 75 C10.72 75 5.44 75 0 75 C0 50.25 0 25.5 0 0 Z M16 13 C16 20.92 16 28.84 16 37 C20.46736264 37.11507231 24.92955031 37.21449895 29.3972168 37.2746582 C30.91529801 37.29974109 32.43325918 37.3338166 33.95092773 37.37719727 C36.13815965 37.43813293 38.32379039 37.46626895 40.51171875 37.48828125 C41.82615967 37.51446533 43.14060059 37.54064941 44.49487305 37.56762695 C48.87731402 36.85792609 50.30654309 35.45758513 53 32 C53.82193708 28.87261102 53.82193708 28.87261102 53.6875 25.5625 C53.72423828 23.92474609 53.72423828 23.92474609 53.76171875 22.25390625 C52.9569718 18.81619234 51.96161607 16.52665115 49.30688477 14.1315918 C43.83120846 11.44561871 37.09642639 12.41211731 31.125 12.625 C29.65890868 12.65512516 28.19275803 12.68249652 26.7265625 12.70703125 C23.1483796 12.76774702 19.57848009 12.88511419 16 13 Z " fill="#000000" transform="translate(323,503)"/>
<path d="M0 0 C15 0 15 0 19.25 3.625 C20.53279897 5.39333149 21.77966981 7.18799457 23 9 C24.24770565 10.62670332 25.5248078 12.2273753 26.8046875 13.82885742 C28.21647605 15.59882749 29.60737851 17.38376105 30.99609375 19.171875 C34.69963758 23.91615528 38.50762062 28.57460182 42.32104492 33.23071289 C46.29751751 38.09701668 50.13812616 43.03473363 54 48 C54.33 32.16 54.66 16.32 55 0 C59.95 0 64.9 0 70 0 C70 24.75 70 49.5 70 75 C55 75 55 75 51.515625 72.6484375 C50.39414062 71.02808594 50.39414062 71.02808594 49.25 69.375 C48.82138672 68.79032959 48.39277344 68.20565918 47.95117188 67.60327148 C47.05226312 66.37479557 46.17204148 65.13243824 45.31054688 63.87744141 C43.60176926 61.42950925 41.74988795 59.11529534 39.88232422 56.78759766 C38.49709283 55.05887194 37.13251992 53.31574435 35.7734375 51.56640625 C32.90020498 47.87005907 30.01474771 44.18344543 27.125 40.5 C26.68478516 39.93676025 26.24457031 39.37352051 25.79101562 38.79321289 C25.15583008 37.98291626 25.15583008 37.98291626 24.5078125 37.15625 C24.14316895 36.69025391 23.77852539 36.22425781 23.40283203 35.74414062 C21.30360735 33.13417524 19.14425114 30.57310136 17 28 C16.67 43.51 16.34 59.02 16 75 C10.72 75 5.44 75 0 75 C0 50.25 0 25.5 0 0 Z " fill="#000000" transform="translate(492,503)"/>
<path d="M0 0 C8.70375 -0.185625 17.4075 -0.37125 26.375 -0.5625 C29.10313965 -0.64443604 31.8312793 -0.72637207 34.64208984 -0.81079102 C36.83166535 -0.83710385 39.02128525 -0.86003138 41.2109375 -0.87890625 C42.32573486 -0.92494995 43.44053223 -0.97099365 44.58911133 -1.01843262 C51.16004838 -1.0249586 54.60405131 -0.09171115 59.54931641 4.36743164 C61.03777767 5.90689842 62.52176489 7.45071118 64 9 C64.73882919 9.53789658 65.47765839 10.07579315 66.23887634 10.62998962 C68 12 68 12 68.62866211 14.55273438 C68.7909679 17.87240757 68.91187147 21.17607118 68.9375 24.5 C68.95296875 26.26899658 68.95296875 26.26899658 68.96875 28.07373047 C68.79382283 34.36498609 68.44485298 39.03091259 64.05688477 43.75585938 C61.82592774 45.71778614 59.52375174 47.43494616 57 49 C58.59698877 54.11036406 61.75070566 57.84642091 65 62 C71.55670103 70.3814433 71.55670103 70.3814433 73 75 C66.6700518 76.14300015 60.19450909 77.20811406 54 75 C47.26979857 69.31263736 43.48892698 60.54852856 39.32421875 52.9375 C35.4676027 49.72257301 31.10763844 50.2181464 26.25 50.1875 C22.8675 50.125625 19.485 50.06375 16 50 C16 58.25 16 66.5 16 75 C10.72 75 5.44 75 0 75 C0 50.25 0 25.5 0 0 Z M16 13 C16 20.92 16 28.84 16 37 C20.32500216 37.11509468 24.64465436 37.21451085 28.9699707 37.2746582 C30.43955525 37.29973644 31.90901587 37.33380856 33.37817383 37.37719727 C35.49591681 37.43815499 37.61200576 37.46627316 39.73046875 37.48828125 C41.00301514 37.51446533 42.27556152 37.54064941 43.58666992 37.56762695 C47.90726584 36.84912431 49.34096569 35.41125703 52 32 C52.82364246 28.60783516 52.82364246 28.60783516 52.6875 25 C52.72423828 23.205625 52.72423828 23.205625 52.76171875 21.375 C51.98359391 17.92730842 51.17944762 15.99827709 48.27563477 13.88916016 C42.77568353 11.74016086 36.44621808 12.50858295 30.625 12.6875 C29.20707042 12.71260613 27.78909821 12.73541525 26.37109375 12.75585938 C22.91214714 12.80642877 19.45916129 12.90426675 16 13 Z " fill="#000000" transform="translate(781,503)"/>
<path d="M0 0 C13.426875 -0.4021875 13.426875 -0.4021875 27.125 -0.8125 C29.9211377 -0.93085205 32.71727539 -1.0492041 35.59814453 -1.17114258 C56.88823189 -1.72169826 56.88823189 -1.72169826 64.6953125 5.0546875 C71.52324138 12.14626015 71.973408 21.10528691 71.9140625 30.52148438 C71.88473633 31.57682373 71.85541016 32.63216309 71.82519531 33.71948242 C71.75002764 36.93631725 71.82451745 40.12580122 71.9140625 43.34179688 C71.97485501 52.98474094 71.34786056 61.97152398 64.6953125 69.44921875 C56.60815357 77.0967525 46.11066929 76.55272382 35.59814453 76.26123047 C32.80200684 76.13377441 30.00586914 76.00631836 27.125 75.875 C13.698125 75.441875 13.698125 75.441875 0 75 C0 50.25 0 25.5 0 0 Z M15 13 C15 28.84 15 44.68 15 61 C22.981875 61.1546875 22.981875 61.1546875 31.125 61.3125 C32.79320801 61.35802002 34.46141602 61.40354004 36.18017578 61.45043945 C37.5185343 61.46505725 38.85691523 61.47779487 40.1953125 61.48828125 C40.877146 61.51386108 41.55897949 61.53944092 42.26147461 61.5657959 C46.06193566 61.56922716 48.13554809 60.92085809 51.43798828 58.99267578 C54.6579011 55.23150832 54.8722461 52.37444188 54.796875 47.62890625 C54.80261536 46.82895737 54.80835571 46.02900848 54.81427002 45.20481873 C54.81834124 43.51794595 54.80735057 41.83097769 54.78222656 40.14428711 C54.75012533 37.57254096 54.78191279 35.00709673 54.8203125 32.43554688 C54.8163466 30.79165289 54.80865707 29.1477628 54.796875 27.50390625 C54.80902039 26.7412294 54.82116577 25.97855255 54.8336792 25.19276428 C54.72779908 21.13862138 54.14870381 18.60307122 51.43798828 15.50512695 C47.98223048 12.508389 44.64471887 12.21375246 40.1953125 12.4140625 C39.23129517 12.42312622 39.23129517 12.42312622 38.24780273 12.43237305 C35.87287107 12.46350038 33.49886338 12.5472699 31.125 12.625 C25.80375 12.74875 20.4825 12.8725 15 13 Z " fill="#000000" transform="translate(580,503)"/>
<path d="M0 0 C8.971875 -0.2475 17.94375 -0.495 27.1875 -0.75 C31.39536255 -0.91387207 31.39536255 -0.91387207 35.68823242 -1.08105469 C55.68249235 -1.52780282 55.68249235 -1.52780282 62.56697083 4.29754639 C64.97333913 6.72625793 67.00987181 9.21749895 69 12 C69.495 12.495 69.495 12.495 70 13 C70.75997193 19.70808377 70.70076892 26.55290718 70.84448242 33.29638672 C70.90593982 35.57821424 70.99432536 37.85949323 71.11108398 40.13916016 C72.14834945 60.79113062 72.14834945 60.79113062 66.39421082 68.3349762 C59.60100035 75.31057836 51.77628185 76.06086993 42.3828125 76.26953125 C37.28186741 76.25673009 32.22827235 76.02850608 27.125 75.8125 C18.17375 75.544375 9.2225 75.27625 0 75 C0 50.25 0 25.5 0 0 Z M15 13 C15 28.84 15 44.68 15 61 C20.48625 61.12375 25.9725 61.2475 31.625 61.375 C33.34541504 61.42962402 35.06583008 61.48424805 36.83837891 61.54052734 C38.21774497 61.55806768 39.59714232 61.57335308 40.9765625 61.5859375 C41.67998779 61.6166333 42.38341309 61.6473291 43.1081543 61.67895508 C47.04631164 61.68309615 49.53393182 61.01709189 52.44946289 58.46313477 C55.49269625 54.97156735 55.88910305 51.51889459 55.83203125 47.00390625 C55.84014328 46.25213608 55.84825531 45.50036591 55.85661316 44.72581482 C55.86503931 43.14330952 55.85829111 41.56065811 55.8371582 39.97827148 C55.81258203 37.57053638 55.85726915 35.17085595 55.90820312 32.76367188 C56.11614003 23.58822312 56.11614003 23.58822312 52.5078125 15.4296875 C46.66446099 10.98331922 37.99828641 12.29608874 31.0625 12.5625 C25.761875 12.706875 20.46125 12.85125 15 13 Z " fill="#AD7128" transform="translate(1176,503)"/>
<path d="M0 0 C1.68526291 0.01061211 1.68526291 0.01061211 3.40457153 0.0214386 C6.98133854 0.04935318 10.55652126 0.11209058 14.1328125 0.17578125 C16.56247734 0.20086772 18.9921668 0.22368027 21.421875 0.24414062 C27.36779486 0.29917098 33.31253537 0.38542726 39.2578125 0.48828125 C39.2578125 4.77828125 39.2578125 9.06828125 39.2578125 13.48828125 C37.98663574 13.48715332 36.71545898 13.48602539 35.40576172 13.48486328 C30.67533071 13.48854296 25.945916 13.5314119 21.21582031 13.5859375 C19.17129066 13.6040708 17.12663869 13.61167086 15.08203125 13.60839844 C12.1370632 13.60553368 9.1946179 13.64092721 6.25 13.68359375 C5.3403952 13.67449982 4.43079041 13.66540588 3.49362183 13.65603638 C-0.89843997 13.75591788 -3.93523684 14.08106217 -7.3190918 17.03442383 C-10.27774171 20.54760911 -10.59890534 24.08566125 -10.50390625 28.5546875 C-10.50895927 29.68945778 -10.50895927 29.68945778 -10.51411438 30.84715271 C-10.51381679 32.43812902 -10.49868601 34.02916476 -10.46948242 35.61987305 C-10.42972489 38.04849708 -10.44881117 40.47167382 -10.47460938 42.90039062 C-10.46705108 44.45184398 -10.4560984 46.0032853 -10.44140625 47.5546875 C-10.44839035 48.27564102 -10.45537445 48.99659454 -10.46257019 49.73939514 C-10.35888218 53.45794798 -9.81189035 55.39023706 -7.6418457 58.44262695 C-4.05390035 60.97385488 -2.01436375 61.13249863 2.3515625 61.15234375 C3.02070679 61.15712738 3.68985107 61.16191101 4.37927246 61.1668396 C5.78786584 61.17022781 7.19653902 61.16110047 8.60498047 61.14013672 C10.75277136 61.11334414 12.89533903 61.13990891 15.04296875 61.171875 C16.41667812 61.1685707 17.79038426 61.16216401 19.1640625 61.15234375 C21.02514648 61.14388428 21.02514648 61.14388428 22.92382812 61.13525391 C27.13383111 60.31828643 28.6199883 58.80234487 31.2578125 55.48828125 C32.06238113 52.61728443 32.06238113 52.61728443 32.0703125 49.67578125 C32.163125 47.10796875 32.163125 47.10796875 32.2578125 44.48828125 C25.6578125 44.48828125 19.0578125 44.48828125 12.2578125 44.48828125 C12.2578125 40.19828125 12.2578125 35.90828125 12.2578125 31.48828125 C23.8078125 31.48828125 35.3578125 31.48828125 47.2578125 31.48828125 C47.474375 38.94421875 47.474375 38.94421875 47.6953125 46.55078125 C47.75904053 48.10547119 47.82276855 49.66016113 47.88842773 51.26196289 C48.02759984 61.14318211 48.02759984 61.14318211 45.91455078 64.83544922 C44.12670034 66.65128949 42.33812767 68.01573492 40.2578125 69.48828125 C39.78023499 69.97644821 39.30265747 70.46461517 38.81060791 70.96757507 C33.85548425 75.87862747 29.87275818 76.41091233 23.046875 76.390625 C22.07930267 76.40348038 21.11173035 76.41633575 20.11483765 76.42958069 C18.07597874 76.44674391 16.03693621 76.44836014 13.99804688 76.43530273 C10.89651518 76.42582313 7.80359463 76.49620615 4.703125 76.57226562 C-9.68965363 76.70923297 -9.68965363 76.70923297 -14.98535156 73.55908203 C-17.20428696 71.32039213 -18.91528572 69.0461048 -20.7421875 66.48828125 C-21.62140869 65.95485107 -22.50062988 65.4214209 -23.40649414 64.87182617 C-27.16117625 61.04022154 -26.51529429 56.82749259 -26.51171875 51.66015625 C-26.5236174 50.59718323 -26.53551605 49.53421021 -26.54777527 48.43902588 C-26.56431948 46.1897144 -26.56767338 43.94027294 -26.55883789 41.69091797 C-26.55471727 38.26305017 -26.61966913 34.84112242 -26.68945312 31.4140625 C-26.69693691 29.22527079 -26.70032421 27.03646047 -26.69921875 24.84765625 C-26.72482376 23.82967957 -26.75042877 22.81170288 -26.77680969 21.76287842 C-26.68755678 16.2040276 -26.01570328 13.12556345 -22.05737305 9.09082031 C-20.63214064 7.87438073 -19.19453916 6.67221002 -17.7421875 5.48828125 C-17.26347702 4.96589371 -16.78476654 4.44350616 -16.29154968 3.9052887 C-11.72214853 -0.91078623 -6.1392883 -0.14607581 0 0 Z " fill="#000000" transform="translate(261.7421875,502.51171875)"/>
<path d="M0 0 C8.971875 -0.2475 17.94375 -0.495 27.1875 -0.75 C31.39536255 -0.91387207 31.39536255 -0.91387207 35.68823242 -1.08105469 C56.91145025 -1.57567265 56.91145025 -1.57567265 64.2109375 5.12890625 C69.07347317 10.35096917 70.61212473 15.77843527 70.63085938 22.92382812 C70.56705078 24.16583984 70.50324219 25.40785156 70.4375 26.6875 C70.46263672 27.94111328 70.48777344 29.19472656 70.51367188 30.48632812 C70.39877465 35.81363592 70.16202506 39.54025549 66.77783203 43.79150391 C64.2799482 46.04273934 61.72179991 48.0302296 59 50 C58.53763947 50.52424561 58.07527893 51.04849121 57.59890747 51.58862305 C55.59128624 53.36077708 54.63291061 53.36561114 51.98754883 53.34057617 C51.18694534 53.34034958 50.38634186 53.34012299 49.56147766 53.33988953 C48.70201035 53.32440567 47.84254303 53.30892181 46.95703125 53.29296875 C45.63163582 53.28660149 45.63163582 53.28660149 44.27946472 53.28010559 C41.45683339 53.26331043 38.63491559 53.22565697 35.8125 53.1875 C33.89909885 53.17245423 31.98568651 53.15876564 30.07226562 53.14648438 C25.38101425 53.11595562 20.69130594 53.0572369 16 53 C16 60.26 16 67.52 16 75 C10.72 75 5.44 75 0 75 C0 50.25 0 25.5 0 0 Z M16 13 C16 21.58 16 30.16 16 39 C20.44906818 39.11519452 24.89291016 39.21458347 29.34228516 39.2746582 C30.85353174 39.29971095 32.36465824 39.33376377 33.87548828 39.37719727 C36.05531501 39.4382669 38.23353262 39.46629916 40.4140625 39.48828125 C41.7232666 39.51446533 43.0324707 39.54064941 44.38134766 39.56762695 C49.1488792 38.81978517 50.68970895 37.45964636 54 34 C54.94549813 30.41824249 54.94549813 30.41824249 54.75 26.5625 C54.76546875 25.28503906 54.7809375 24.00757813 54.796875 22.69140625 C54.00722172 19.03345357 53.18309238 16.62031972 50.3359375 14.09643555 C44.70067192 11.45137099 37.71742033 12.41482538 31.625 12.625 C30.11072983 12.65512345 28.59640226 12.6824951 27.08203125 12.70703125 C23.385447 12.76776374 19.69687144 12.88513748 16 13 Z " fill="#000000" transform="translate(699,503)"/>
<path d="M0 0 C6.93 0 13.86 0 21 0 C21.72960937 1.68996094 22.45921875 3.37992187 23.2109375 5.12109375 C24.26536253 7.56000975 25.32004929 9.99881144 26.375 12.4375 C26.65412231 13.08305847 26.93324463 13.72861694 27.2208252 14.39373779 C31.06040892 23.27023843 34.9325471 32.1318337 38.8359375 40.98046875 C39.24351288 41.90522507 39.65108826 42.82998138 40.0710144 43.78276062 C42.10000414 48.38609044 44.13220001 52.9879591 46.16943359 57.58764648 C46.92038857 59.29013956 47.67120875 60.9926921 48.421875 62.6953125 C48.76922699 63.47637863 49.11657898 64.25744476 49.47445679 65.06217957 C49.79322784 65.78689957 50.1119989 66.51161957 50.44042969 67.25830078 C50.71876648 67.88729279 50.99710327 68.51628479 51.28387451 69.16433716 C52 71 52 71 53 75 C47.06 75 41.12 75 35 75 C32.36 68.73 29.72 62.46 27 56 C15.78 55.67 4.56 55.34 -7 55 C-7.33 56.65 -7.66 58.3 -8 60 C-8.75610352 61.94458008 -8.75610352 61.94458008 -9.62890625 63.76953125 C-9.91064697 64.36612549 -10.1923877 64.96271973 -10.48266602 65.57739258 C-10.83901123 66.31497803 -11.19535645 67.05256348 -11.5625 67.8125 C-12.696875 70.184375 -13.83125 72.55625 -15 75 C-20.94 75 -26.88 75 -33 75 C-28.78241138 63.55593332 -23.81404585 52.52635538 -18.75 41.4375 C-17.93324006 39.64273904 -17.11683211 37.84781786 -16.30078125 36.05273438 C-15.08505318 33.37869697 -13.86903235 30.70479723 -12.65148926 28.03158569 C-8.40309705 18.70171376 -4.20110481 9.35125438 0 0 Z M10 17 C8.1636275 20.9777711 6.33141138 24.9574426 4.5 28.9375 C3.97535156 30.07380859 3.45070313 31.21011719 2.91015625 32.38085938 C2.41386719 33.46044922 1.91757812 34.54003906 1.40625 35.65234375 C0.71499023 37.15269165 0.71499023 37.15269165 0.00976562 38.68334961 C-1.06659445 40.73159207 -1.06659445 40.73159207 -1 42 C6.26 42 13.52 42 21 42 C19.72125 38.803125 18.4425 35.60625 17.125 32.3125 C15.08333333 27.20833333 13.04166667 22.10416667 11 17 C10.67 17 10.34 17 10 17 Z " fill="#000000" transform="translate(431,503)"/>
<path d="M0 0 C6.93 0 13.86 0 21 0 C22.13695312 2.60003906 23.27390625 5.20007813 24.4453125 7.87890625 C26.00440111 11.44045794 27.56473693 15.0014627 29.125 18.5625 C29.73042633 19.94517059 29.73042633 19.94517059 30.3480835 21.35577393 C34.61707357 31.10102319 38.9007018 40.8379358 43.3125 50.51953125 C43.80494705 51.60135429 43.80494705 51.60135429 44.30734253 52.70503235 C45.84123283 56.07102496 47.38253714 59.43336974 48.93408203 62.79125977 C49.47403809 63.97131592 50.01399414 65.15137207 50.5703125 66.3671875 C51.04227051 67.38925293 51.51422852 68.41131836 52.00048828 69.46435547 C53 72 53 72 53 75 C47.39 75 41.78 75 36 75 C28 59.21621622 28 59.21621622 28 55 C16.45 55 4.9 55 -7 55 C-7.33 56.65 -7.66 58.3 -8 60 C-8.95753884 62.44825271 -9.94290322 64.84660072 -11 67.25 C-11.27328125 67.88679687 -11.5465625 68.52359375 -11.828125 69.1796875 C-13.85925752 73.85925752 -13.85925752 73.85925752 -15 75 C-17.86267567 75.07325168 -20.700719 75.09238205 -23.5625 75.0625 C-24.36880859 75.05798828 -25.17511719 75.05347656 -26.00585938 75.04882812 C-28.00393756 75.03700518 -30.00197783 75.01906914 -32 75 C-31.33253854 70.19746147 -29.43027637 66.17621117 -27.421875 61.81640625 C-27.0584903 61.01585312 -26.69510559 60.21529999 -26.32070923 59.39048767 C-25.53993448 57.67128272 -24.75691187 55.95309719 -23.97186279 54.23583984 C-21.91541563 49.73649493 -19.87583471 45.22952312 -17.8359375 40.72265625 C-17.42634796 39.81855011 -17.01675842 38.91444397 -16.59475708 37.98294067 C-12.77010667 29.52504509 -9.0495044 21.02403883 -5.375 12.5 C-4.95631653 11.52935104 -4.95631653 11.52935104 -4.5291748 10.53909302 C-3.0153672 7.02779698 -1.50688051 3.51427964 0 0 Z M10 17 C8.32742736 20.78908876 6.66294885 24.58167885 5 28.375 C4.52304688 29.45523438 4.04609375 30.53546875 3.5546875 31.6484375 C3.10351562 32.6796875 2.65234375 33.7109375 2.1875 34.7734375 C1.76855469 35.72653809 1.34960938 36.67963867 0.91796875 37.66162109 C-0.12180594 39.89159667 -0.12180594 39.89159667 0 42 C6.93 42 13.86 42 21 42 C18.79277659 35.18671095 18.79277659 35.18671095 16.17578125 28.62109375 C15.86962891 27.92822266 15.56347656 27.23535156 15.24804688 26.52148438 C14.93931641 25.83376953 14.63058594 25.14605469 14.3125 24.4375 C13.99216797 23.71498047 13.67183594 22.99246094 13.34179688 22.24804688 C12.56487057 20.49706371 11.78297505 18.74828676 11 17 C10.67 17 10.34 17 10 17 Z " fill="#AD7128" transform="translate(1341,503)"/>
<path d="M0 0 C15.70971867 -1.19693095 15.70971867 -1.19693095 20.33203125 1.21875 C22.17989788 3.35198338 23.53562966 5.58262675 25 8 C26.553503 10.11730419 28.14796423 12.20024759 29.74462891 14.28515625 C32.19928651 17.49667252 34.59943488 20.74796503 37 24 C42.62179822 17.24852602 48.02369111 10.39508388 53.25 3.3359375 C55 1 55 1 56 0 C57.41570123 -0.08651611 58.835595 -0.10704904 60.25390625 -0.09765625 C61.53491211 -0.09282227 61.53491211 -0.09282227 62.84179688 -0.08789062 C64.18854492 -0.07532227 64.18854492 -0.07532227 65.5625 -0.0625 C66.46419922 -0.05798828 67.36589844 -0.05347656 68.29492188 -0.04882812 C70.53001314 -0.03700225 72.76497437 -0.0205222 75 0 C72.47321848 4.64973951 69.85274773 8.60350019 66.375 12.625 C62.62799277 17.01558256 59.01140528 21.48100139 55.5 26.0625 C55.07895996 26.6105127 54.65791992 27.15852539 54.22412109 27.72314453 C50.46207496 31.90878126 50.46207496 31.90878126 49.19946289 36.94555664 C50.11136505 39.2857996 51.24461724 40.90596031 52.80859375 42.87109375 C53.38633545 43.60432861 53.96407715 44.33756348 54.55932617 45.09301758 C55.17912354 45.86669678 55.7989209 46.64037598 56.4375 47.4375 C57.71376262 49.05451314 58.98980271 50.67170192 60.265625 52.2890625 C60.89791016 53.08602539 61.53019531 53.88298828 62.18164062 54.70410156 C64.70517594 57.89036983 67.20222552 61.09634641 69.6875 64.3125 C70.45449219 65.29863281 71.22148438 66.28476562 72.01171875 67.30078125 C73.84789561 69.79350857 75.46024584 72.31642847 77 75 C60.49065665 76.66269073 60.49065665 76.66269073 55.12109375 73.078125 C53.24046951 70.73686904 51.61383683 68.38116206 50.09814453 65.79003906 C48.39761181 63.01807243 46.42580533 60.46040575 44.47460938 57.86157227 C42.27888054 54.93451506 40.14188296 51.96660798 38 49 C33.76580059 53.0521684 30.10067016 57.43052192 26.4375 62 C25.87353516 62.69867187 25.30957031 63.39734375 24.72851562 64.1171875 C24.17744141 64.80039062 23.62636719 65.48359375 23.05859375 66.1875 C22.52121582 66.84145752 21.98383789 67.49541504 21.43017578 68.16918945 C19.84272932 70.12504514 19.84272932 70.12504514 18.20703125 72.98046875 C15.16598627 75.76315946 12.90932831 75.51607139 8.89453125 75.43945312 C8.02183594 75.39755859 7.14914062 75.35566406 6.25 75.3125 C5.36183594 75.28994141 4.47367188 75.26738281 3.55859375 75.24414062 C1.37067188 75.18532552 -0.81379671 75.10321268 -3 75 C0.26900722 69.91935084 3.8946606 65.18662957 7.625 60.4375 C8.86983344 58.84117841 10.11462478 57.24482398 11.359375 55.6484375 C13.60939699 52.7702548 15.86953355 49.90063773 18.140625 47.0390625 C19.05211397 45.88023243 19.96357436 44.72137988 20.875 43.5625 C21.67679688 42.55316406 22.47859375 41.54382813 23.3046875 40.50390625 C25.28032409 38.0899469 25.28032409 38.0899469 25 35 C23.34599401 32.41357224 23.34599401 32.41357224 21.125 29.625 C20.72369873 29.10260742 20.32239746 28.58021484 19.90893555 28.04199219 C19.05261713 26.92889398 18.19305762 25.81828298 17.33056641 24.70996094 C16.00941286 23.01209682 14.69676275 21.30800902 13.38671875 19.6015625 C8.72286748 13.52789984 8.72286748 13.52789984 4.03515625 7.47265625 C3.48730469 6.75980469 2.93945312 6.04695313 2.375 5.3125 C1.90835938 4.71050781 1.44171875 4.10851562 0.9609375 3.48828125 C0 2 0 2 0 0 Z " fill="#000000" transform="translate(914,503)"/>
<path d="M0 0 C15.18 0 30.36 0 46 0 C46 4.29 46 8.58 46 13 C41.05 13 36.1 13 31 13 C31 28.84 31 44.68 31 61 C35.95 61 40.9 61 46 61 C46 65.62 46 70.24 46 75 C30.82 75 15.64 75 0 75 C0 70.38 0 65.76 0 61 C4.95 61 9.9 61 15 61 C15 45.16 15 29.32 15 13 C10.05 13 5.1 13 0 13 C0 8.71 0 4.42 0 0 Z " fill="#AD7128" transform="translate(1029,503)"/>
<path d="M0 0 C15.18 0 30.36 0 46 0 C46 4.29 46 8.58 46 13 C41.05 13 36.1 13 31 13 C31 28.84 31 44.68 31 61 C35.95 61 40.9 61 46 61 C46 65.62 46 70.24 46 75 C30.82 75 15.64 75 0 75 C0 70.38 0 65.76 0 61 C4.95 61 9.9 61 15 61 C15 45.16 15 29.32 15 13 C10.05 13 5.1 13 0 13 C0 8.71 0 4.42 0 0 Z " fill="#000000" transform="translate(861,503)"/>
<path d="M0 0 C14.85 0 29.7 0 45 0 C45 4.29 45 8.58 45 13 C40.05 13 35.1 13 30 13 C30 28.84 30 44.68 30 61 C34.95 61 39.9 61 45 61 C45 65.62 45 70.24 45 75 C30.15 75 15.3 75 0 75 C0 70.38 0 65.76 0 61 C4.62 61 9.24 61 14 61 C14 45.16 14 29.32 14 13 C9.38 13 4.76 13 0 13 C0 8.71 0 4.42 0 0 Z " fill="#AD7128" transform="translate(1259,503)"/>
<path d="M0 0 C3.3 0 6.6 0 10 0 C14.68437976 9.86636762 18.90309282 19.87894231 23 30 C23.35827881 29.12674072 23.71655762 28.25348145 24.08569336 27.35375977 C25.41247211 24.1232764 26.74147757 20.89372835 28.07202148 17.66479492 C28.64811757 16.26542583 29.22331591 14.86568681 29.79760742 13.46557617 C30.62184312 11.45654609 31.44926745 9.44885583 32.27734375 7.44140625 C32.77484131 6.23170166 33.27233887 5.02199707 33.78491211 3.77563477 C35 1 35 1 36 0 C37.5348297 -0.09319449 39.07392082 -0.117458 40.61157227 -0.11352539 C41.59251358 -0.11344986 42.5734549 -0.11337433 43.5841217 -0.11329651 C44.6507756 -0.10813522 45.7174295 -0.10297394 46.81640625 -0.09765625 C48.44569313 -0.09553383 48.44569313 -0.09553383 50.1078949 -0.09336853 C53.59279075 -0.08775048 57.07762342 -0.07519492 60.5625 -0.0625 C62.91861887 -0.05748733 65.27473874 -0.05292402 67.63085938 -0.04882812 C73.42059464 -0.03777519 79.21029281 -0.02101951 85 0 C85 2.64 85 5.28 85 8 C80.05 8 75.1 8 70 8 C70 19.22 70 30.44 70 42 C67.03 42 64.06 42 61 42 C61 30.78 61 19.56 61 8 C56.05 8 51.1 8 46 8 C45.505 6.02 45.505 6.02 45 4 C39.72 16.54 34.44 29.08 29 42 C25.04 42 21.08 42 17 42 C13.32073255 34.03394227 9.84842006 25.99731547 6.49584961 17.88989258 C5.67501664 15.90734915 4.84834237 13.92730259 4.02148438 11.94726562 C3.49704269 10.68243803 2.97294093 9.41746943 2.44921875 8.15234375 C1.97830811 7.01788818 1.50739746 5.88343262 1.0222168 4.71459961 C0 2 0 2 0 0 Z " fill="#000000" transform="translate(1472,536)"/>
<path d="M0 0 C7.7034375 -0.2165625 7.7034375 -0.2165625 15.5625 -0.4375 C17.97284546 -0.53309204 17.97284546 -0.53309204 20.43188477 -0.63061523 C32.23398509 -0.79157657 32.23398509 -0.79157657 36.47265625 2.65234375 C40.58045798 7.98917707 40.01473981 14.57196875 39.875 21 C39.90207031 22.24523437 39.92914062 23.49046875 39.95703125 24.7734375 C39.91694069 30.14557282 39.84615493 34.9648254 36.47265625 39.34765625 C30.73451147 44.00989888 22.49220892 42.71232576 15.5625 42.4375 C10.426875 42.293125 5.29125 42.14875 0 42 C0 28.14 0 14.28 0 0 Z M9 8 C9 16.58 9 25.16 9 34 C13.3621875 34.0928125 13.3621875 34.0928125 17.8125 34.1875 C18.72491455 34.21481201 19.6373291 34.24212402 20.57739258 34.27026367 C21.30079834 34.27775635 22.0242041 34.28524902 22.76953125 34.29296875 C23.87711792 34.31653442 23.87711792 34.31653442 25.00708008 34.34057617 C27.62535842 33.89313059 28.46536223 33.15110857 30 31 C30.45942166 28.83273497 30.45942166 28.83273497 30.3984375 26.4375 C30.40230469 25.55835938 30.40617187 24.67921875 30.41015625 23.7734375 C30.39855469 22.85820313 30.38695312 21.94296875 30.375 21 C30.38660156 20.08476563 30.39820313 19.16953125 30.41015625 18.2265625 C30.40435547 16.90785156 30.40435547 16.90785156 30.3984375 15.5625 C30.39505371 14.75941406 30.39166992 13.95632813 30.38818359 13.12890625 C29.89979903 10.45047017 29.21060863 9.5671276 27 8 C24.97629351 7.58942213 24.97629351 7.58942213 22.76953125 7.70703125 C21.68442261 7.71827026 21.68442261 7.71827026 20.57739258 7.72973633 C19.66497803 7.75704834 18.75256348 7.78436035 17.8125 7.8125 C13.4503125 7.9053125 13.4503125 7.9053125 9 8 Z " fill="#000000" transform="translate(1671,536)"/>
<path d="M0 0 C4.970625 -0.12375 9.94125 -0.2475 15.0625 -0.375 C16.61718994 -0.42962402 18.17187988 -0.48424805 19.77368164 -0.54052734 C31.19358594 -0.67839339 31.19358594 -0.67839339 35.44140625 2.49609375 C38.74400422 6.14137862 39.0518612 9.67488056 38.875 14.4375 C38.90207031 15.16259766 38.92914062 15.88769531 38.95703125 16.63476562 C38.90278122 20.94764326 37.95198715 23.68728623 35.16015625 27.0078125 C31.1987317 30.53418775 27.73109437 30.73538882 22.56445312 30.61523438 C21.57380859 30.55658203 20.58316406 30.49792969 19.5625 30.4375 C18.54478516 30.40591797 17.52707031 30.37433594 16.47851562 30.34179688 C13.98442136 30.25983134 11.49182479 30.13428996 9 30 C9 33.96 9 37.92 9 42 C6.03 42 3.06 42 0 42 C0 28.14 0 14.28 0 0 Z M9 8 C9 12.29 9 16.58 9 21 C11.95857409 21.05379226 14.91617721 21.09357093 17.875 21.125 C19.13763672 21.15013672 19.13763672 21.15013672 20.42578125 21.17578125 C21.63427734 21.18544922 21.63427734 21.18544922 22.8671875 21.1953125 C23.61081543 21.20578613 24.35444336 21.21625977 25.12060547 21.22705078 C27.24490235 21.1665597 27.24490235 21.1665597 29 19 C29.35609192 16.86181539 29.35609192 16.86181539 29.3125 14.5 C29.32925781 13.7059375 29.34601563 12.911875 29.36328125 12.09375 C29.24339844 11.4028125 29.12351562 10.711875 29 10 C25.95318939 7.96879293 25.39881676 7.75340125 21.98828125 7.8046875 C21.23095703 7.81113281 20.47363281 7.81757812 19.69335938 7.82421875 C18.90767578 7.84097656 18.12199219 7.85773437 17.3125 7.875 C16.51521484 7.88402344 15.71792969 7.89304687 14.89648438 7.90234375 C12.930861 7.92588415 10.96539225 7.96175453 9 8 Z " fill="#000000" transform="translate(1432,536)"/>
<path d="M0 0 C3.3 0 6.6 0 10 0 C10 11.22 10 22.44 10 34 C18.25 34 26.5 34 35 34 C35 36.64 35 39.28 35 42 C23.45 42 11.9 42 0 42 C0 28.14 0 14.28 0 0 Z " fill="#000000" transform="translate(1595,536)"/>
<path d="M0 0 C12.87 0 25.74 0 39 0 C39 2.64 39 5.28 39 8 C34.05 8 29.1 8 24 8 C24 19.22 24 30.44 24 42 C21.03 42 18.06 42 15 42 C15 30.78 15 19.56 15 8 C10.05 8 5.1 8 0 8 C0 5.36 0 2.72 0 0 Z " fill="#000000" transform="translate(1627,536)"/>
<path d="M0 0 C2.97 0 5.94 0 9 0 C9 2.97 9 5.94 9 9 C6.03 9 3.06 9 0 9 C0 6.03 0 3.06 0 0 Z " fill="#000000" transform="translate(1561,569)"/>
</svg>
