<?xml version="1.0" encoding="UTF-8" standalone="no"?><!DOCTYPE svg PUBLIC "-//W3C//DTD SVG 1.1//EN" "http://www.w3.org/Graphics/SVG/1.1/DTD/svg11.dtd"><svg width="100%" height="100%" viewBox="0 0 953 953" version="1.1" xmlns="http://www.w3.org/2000/svg" xmlns:xlink="http://www.w3.org/1999/xlink" xml:space="preserve" xmlns:serif="http://www.serif.com/" style="fill-rule:evenodd;clip-rule:evenodd;stroke-linejoin:round;stroke-miterlimit:2;"><clipPath id="_clip1"><rect x="-0.063" y="-0.721" width="952.441" height="952.441"/></clipPath><g clip-path="url(#_clip1)"><path d="M380.563,211.221c0.408,-0.008 0.817,-0.015 1.237,-0.023c1.366,-0.02 2.732,-0.004 4.098,0.011c0.981,-0.007 1.962,-0.016 2.944,-0.026c2.669,-0.023 5.337,-0.014 8.005,0.002c2.809,0.013 5.618,0.001 8.427,-0.007c4.733,-0.009 9.467,0.003 14.2,0.026c5.426,0.027 10.852,0.018 16.278,-0.009c4.685,-0.023 9.369,-0.025 14.054,-0.013c2.785,0.008 5.571,0.009 8.356,-0.008c36.883,-0.19 79.68,10.85 108.225,88.008c0.457,1.217 0.915,2.434 1.386,3.688c10.607,29.645 15.7,70.925 16.438,113.307c0.363,38.144 -3.983,70.028 -12.254,98.869c-0.286,1.049 -0.573,2.099 -0.868,3.18c-19.832,71.551 -57.762,98.584 -87.135,107.224c-8.314,2.275 -16.659,1.864 -24.999,1.815c-2.084,-0.01 -4.167,-0.011 -6.251,-0.013c-3.931,-0.005 -7.862,-0.019 -11.793,-0.035c-5.322,-0.022 -10.645,-0.031 -15.967,-0.04c-8.365,-0.015 -16.73,-0.048 -25.094,-0.078l0,-136.769c7.063,-0.95 14.061,-1.875 21.12,-1.995c0.781,-0.022 1.563,-0.044 2.344,-0.068c3.24,-0.099 6.48,-0.19 9.72,-0.246c21.648,-0.077 21.648,-0.077 41.069,-26.116c3.238,-9.802 5.453,-21.204 5.57,-35.016c-0.071,-17.294 -2.208,-31.373 -6.301,-43.667c-21.31,-55.055 -84.481,-27.736 -95.244,-28.013l0,413.603l-89.117,0c-0.494,-100.792 -0.494,-100.792 -0.598,-143.048c-0.024,-9.655 -0.049,-19.31 -0.075,-28.965c-0.005,-1.815 -0.005,-1.815 -0.01,-3.667c-0.053,-19.505 -0.15,-39.007 -0.262,-58.51c-0.115,-20.034 -0.183,-40.065 -0.208,-60.102c-0.017,-12.355 -0.07,-24.698 -0.169,-37.049c-0.073,-9.491 -0.08,-18.975 -0.064,-28.468c-0.003,-3.879 -0.028,-7.759 -0.075,-11.635c-0.276,-23.92 -0.276,-23.92 1.461,-33.919c3.034,-9.151 6.916,-14.474 10.84,-19.554c1.751,-2.312 3.337,-5.045 4.967,-8.021c0.962,-1.657 1.925,-3.314 2.887,-4.969c5.006,-8.625 10.007,-17.281 15.004,-25.953c5.454,-9.466 10.913,-18.909 16.377,-28.328c4.727,-8.154 9.448,-16.341 14.168,-24.532c5.409,-9.387 10.824,-18.749 16.243,-28.085c0.511,-0.88 1.022,-1.761 1.548,-2.668c0.443,-0.762 0.885,-1.525 1.341,-2.31c1.3,-2.18 1.3,-2.18 2.503,-4.807c1.998,-3.021 3.433,-2.993 5.674,-2.999Z" style="fill-rule:nonzero;"/><path d="M171.807,211.527c1.402,0.006 2.804,0.011 4.206,0.014c3.634,0.012 7.268,0.045 10.902,0.081c3.731,0.034 7.462,0.049 11.193,0.065c7.279,0.035 14.558,0.09 21.837,0.161c-2.038,4.908 -4.079,9.06 -6.347,13.002c-0.33,0.576 -0.66,1.152 -1,1.745c-1.043,1.819 -2.087,3.629 -3.132,5.438c-0.712,1.24 -1.424,2.48 -2.135,3.72c-1.735,3.023 -3.472,6.039 -5.21,9.05c24.35,6.454 24.35,6.454 45.531,-23.197c2.722,-6.868 4.605,-10.593 8.25,-10.508c0.713,0 1.427,0.001 2.162,0.002c0.77,0.034 1.54,0.068 2.311,0.103c0.794,0.012 1.589,0.022 2.383,0.028c2.082,0.025 4.164,0.09 6.247,0.163c2.128,0.068 4.256,0.098 6.385,0.131c4.17,0.071 8.339,0.183 12.508,0.322c-2.005,4.815 -4.02,9.018 -6.225,13.002c-0.317,0.576 -0.635,1.152 -0.962,1.745c-1.003,1.818 -2.008,3.628 -3.013,5.438c-0.685,1.24 -1.37,2.48 -2.055,3.72c-1.669,3.023 -3.34,6.038 -5.012,9.05c24.448,6.086 24.448,6.086 45.534,-24.88c2.538,-6.346 4.271,-8.696 7.626,-8.637c1.07,0.001 1.07,0.001 2.162,0.001c0.773,0.025 1.546,0.051 2.319,0.077c0.795,0.009 1.59,0.016 2.386,0.021c2.087,0.019 4.174,0.067 6.26,0.122c2.132,0.051 4.264,0.073 6.396,0.098c4.179,0.053 8.357,0.137 12.535,0.241c-1.685,5.142 -3.268,8.693 -5.378,12.236c-0.616,1.042 -1.232,2.084 -1.867,3.157c-0.648,1.083 -1.297,2.165 -1.945,3.247c-1.259,2.122 -2.518,4.244 -3.777,6.366c-0.927,1.55 -0.927,1.55 -1.873,3.132c-1.274,2.16 -2.535,4.342 -3.79,6.59c-0.601,1.07 -1.202,2.14 -1.821,3.242c-0.809,1.463 -0.809,1.463 -1.635,2.956c-0.431,0.633 -0.862,1.265 -1.307,1.917c-0.368,-0.544 -0.735,-1.088 -1.114,-1.648c0.184,-0.544 0.368,-1.088 0.557,-1.648c-25.566,-5.78 -25.566,-5.78 -47.344,28.013c-0.368,0.544 -0.735,1.088 -1.114,1.648c10.293,0.544 20.586,1.088 31.191,1.648c-1.909,5.647 -3.624,9.369 -5.92,13.247c-0.527,0.907 -0.527,0.907 -1.065,1.832c-1.116,1.918 -2.235,3.822 -3.354,5.725c-1.12,1.918 -2.24,3.838 -3.36,5.76c-0.695,1.191 -1.39,2.38 -2.087,3.565c-1.454,2.481 -2.869,5.015 -4.266,7.771c-1.412,0.315 -1.412,0.315 -3.123,0.185c-0.642,-0.036 -1.285,-0.073 -1.946,-0.11c-0.698,-0.048 -1.396,-0.096 -2.115,-0.146c-1.49,-0.039 -2.979,-0.072 -4.469,-0.1c-2.34,-0.048 -4.677,-0.125 -7.016,-0.321c-10.081,-0.805 -17.357,1.963 -25.626,20.501c-5.764,12.802 -9.723,18.208 -17.001,17.529c-0.776,-0.025 -1.553,-0.043 -2.329,-0.057c-2.018,-0.05 -4.034,-0.179 -6.051,-0.326c-2.069,-0.136 -4.138,-0.195 -6.207,-0.261c-4.041,-0.14 -8.08,-0.364 -12.12,-0.644c1.792,-5.485 3.648,-9.485 5.857,-13.363c0.515,-0.919 0.515,-0.919 1.039,-1.856c1.088,-1.939 2.178,-3.865 3.269,-5.791c0.741,-1.319 1.483,-2.638 2.224,-3.959c1.81,-3.222 3.622,-6.432 5.435,-9.636c-4.296,-0.552 -8.592,-0.922 -12.891,-1.177c-1.456,-0.107 -2.913,-0.252 -4.368,-0.439c-11.992,-1.504 -18.987,5.767 -28.488,26.926c-4.266,9.078 -8.283,9.634 -13.395,10.251c-2.43,0.3 -4.856,0.783 -7.282,1.245c-0.475,0.087 -0.95,0.173 -1.439,0.262c-18.627,3.518 -39.576,21.794 -54.672,55.21c-0.525,1.149 -1.05,2.298 -1.59,3.482c-6.907,15.869 -12.422,36.434 -14.005,62.431c-1.001,28.551 1.409,52.609 7.323,75.484c12.937,44.823 34.02,65.246 53.27,70.805c3.978,0.815 7.971,0.771 11.958,0.888c0.868,0.03 1.736,0.061 2.604,0.093c3.192,0.112 6.384,0.211 9.575,0.312c7.145,0.238 14.291,0.476 21.653,0.721l0,-205.978l80.763,0l0,347.69c-31.006,0.066 -31.006,0.066 -44.066,0.08c-2.983,0.003 -5.967,0.007 -8.95,0.01c-0.374,0 -0.748,0.001 -1.133,0.001c-6.004,0.007 -12.009,0.02 -18.013,0.035c-6.18,0.016 -12.36,0.024 -18.54,0.028c-3.464,0.002 -6.927,0.007 -10.391,0.019c-3.272,0.011 -6.544,0.015 -9.816,0.012c-1.19,0 -2.379,0.004 -3.569,0.01c-11.174,0.057 -22.383,-0.46 -33.505,-3.904c-0.69,-0.212 -1.381,-0.424 -2.092,-0.642c-36.369,-11.746 -73.524,-46.685 -100.567,-122.533c-0.278,-0.768 -0.555,-1.536 -0.841,-2.327c-9.618,-26.741 -16.867,-58.561 -20.324,-96.542c-0.177,-1.927 -0.355,-3.853 -0.537,-5.838c-3.62,-46.838 -0.716,-94.401 7.221,-135.874c5.634,-25.975 12.969,-48.652 21.165,-67.561c0.301,-0.695 0.601,-1.389 0.911,-2.105c28.782,-65.929 65.175,-99.943 100.808,-114.479c0.402,-0.167 0.803,-0.333 1.217,-0.505c13.098,-5.367 26.204,-6.995 39.415,-6.82Zm-18.467,58.325c-1.28,2.818 -2.582,5.328 -3.944,7.781c-0.614,1.13 -1.227,2.26 -1.859,3.424l0,1.648c4.009,0.504 8.018,0.88 12.03,1.11c1.865,0.11 3.726,0.271 5.59,0.506c10.237,1.257 17.052,-1.628 25.249,-20.483c1.576,-3.556 3.229,-6.537 4.927,-9.558c0.788,-1.461 1.571,-2.95 2.332,-4.532l0,-1.648c-3.98,-0.583 -7.959,-1.017 -11.944,-1.281c-1.853,-0.127 -3.7,-0.312 -5.551,-0.584c-11.054,-1.581 -17.984,3.661 -26.831,23.616Zm67.339,0.153c-1.256,2.737 -2.538,5.179 -3.869,7.577c-0.62,1.147 -1.239,2.294 -1.878,3.475l0,1.648c24.647,6.503 24.647,6.503 46.16,-23.197c0.391,-1.046 0.781,-2.091 1.184,-3.169c0.924,-2.212 1.851,-4.413 2.785,-6.591c-4.063,-0.543 -8.124,-0.949 -12.19,-1.195c-1.89,-0.119 -3.776,-0.292 -5.665,-0.545c-10.785,-1.409 -17.824,2.605 -26.526,21.997Zm-57.546,42.361c-0.926,2.207 -1.853,4.407 -2.785,6.591c4.092,0.464 8.183,0.812 12.277,1.025c1.903,0.102 3.803,0.239 5.705,0.467c9.92,1.1 16.883,-0.652 24.902,-18.806c1.729,-3.805 3.575,-6.975 5.434,-10.183c0.985,-1.769 1.965,-3.568 2.924,-5.458l0,-1.648c-26.016,-5.801 -26.016,-5.801 -48.458,28.013Zm65.724,6.591c24.984,6.403 24.984,6.403 46.665,-24.693c0.611,-1.643 0.611,-1.643 1.235,-3.32c0.924,-2.214 1.851,-4.416 2.785,-6.591c-27.677,-5.814 -27.677,-5.814 -50.685,34.604Z" style="fill-rule:nonzero;"/><path d="M115.43,1.629c0.885,0.248 1.77,0.494 2.655,0.74c2.327,0.649 4.654,1.308 6.981,1.969c2.759,0.782 5.519,1.552 8.278,2.324c2.266,0.634 4.532,1.272 6.798,1.918c4.346,1.236 8.692,2.436 13.041,3.543c1.204,0.312 2.408,0.626 3.612,0.94c1.099,0.282 2.198,0.547 3.297,0.811c6.228,1.631 12.775,3.512 17.521,16.713c4.128,15.39 5.88,35.516 7.972,53.863c0.149,1.303 0.297,2.606 0.45,3.949c1.047,9.345 1.047,9.345 1.047,13.044c2.772,0.166 5.543,0.284 8.315,0.362c0.939,0.033 1.877,0.077 2.816,0.135c9.146,0.549 16.393,-3.619 24.544,-16.312c21.294,-31.693 45.515,-48.952 69.038,-56.689c0.544,-0.184 1.089,-0.369 1.65,-0.558c23.866,-7.997 60.206,-17.167 81.341,21.98c0.815,1.455 1.631,2.907 2.448,4.358c7.109,12.737 14.022,26.32 20.919,40.024c0.583,1.132 1.167,2.264 1.768,3.43c1.6,3.271 1.6,3.271 2.844,6.522c1.881,4.717 3.033,6.793 5.545,6.256c1.071,-0.65 2.143,-1.306 3.207,-2.057c3.621,-2.536 7.192,-3.543 10.901,-4.316c0.619,-0.134 1.239,-0.267 1.877,-0.405c1.924,-0.407 3.848,-0.798 5.773,-1.185c1.937,-0.396 3.875,-0.797 5.812,-1.209c1.195,-0.254 2.39,-0.498 3.586,-0.732c5.042,-1.06 10.226,-2.384 14.97,-7.843c0.683,4.042 0.621,6.675 0.611,11.187c-0.002,1.551 -0.004,3.101 -0.005,4.699c-0.005,1.623 -0.009,3.246 -0.014,4.918c-0.003,1.636 -0.005,3.271 -0.008,4.956c-0.007,4.047 -0.016,8.093 -0.027,12.14c1.028,-0.472 1.028,-0.472 2.076,-0.953c3.339,-1.084 6.506,0.12 9.823,1.378c0.661,0.239 1.321,0.478 2.002,0.724c1.4,0.51 2.799,1.029 4.198,1.555c2.083,0.782 4.167,1.532 6.251,2.279c38.331,13.98 74.959,46.107 99.651,139.671c2.978,11.472 5.773,23.144 8.387,35.372c0.281,1.314 0.562,2.629 0.852,3.983c1.273,6.068 2.435,11.877 3.221,18.674c-1.103,1.631 -2.206,3.263 -3.342,4.943c-0.159,-0.812 -0.319,-1.624 -0.483,-2.461c-3.163,-16.011 -6.271,-30.358 -10.657,-43.678c-0.437,-1.665 -0.873,-3.331 -1.323,-5.046c-22.357,-74.016 -64.362,-95.995 -95.848,-101.713c-5.154,-0.804 -10.323,-0.587 -15.482,-0.58c-1.306,-0.004 -2.612,-0.009 -3.918,-0.015c-3.198,-0.012 -6.397,-0.016 -9.595,-0.017c-3.836,-0.002 -7.671,-0.013 -11.507,-0.024c-9.27,-0.026 -18.54,-0.036 -27.81,-0.044c-4.394,-0.004 -8.789,-0.01 -13.183,-0.016c-15.071,-0.021 -30.142,-0.039 -45.213,-0.044c-0.945,-0 -1.89,-0.001 -2.835,-0.001c-0.947,-0 -1.894,-0.001 -2.841,-0.001c-1.9,-0.001 -3.8,-0.001 -5.7,-0.002c-0.707,-0 -0.707,-0 -1.427,-0.001c-15.245,-0.006 -30.489,-0.032 -45.734,-0.071c-16.154,-0.041 -32.307,-0.063 -48.461,-0.065c-1.779,-0 -3.558,-0.001 -5.337,-0.001c-0.657,-0 -0.657,-0 -1.327,-0c-7.001,-0.002 -14.002,-0.02 -21.003,-0.044c-7.06,-0.024 -14.121,-0.029 -21.181,-0.016c-3.813,0.007 -7.627,0.005 -11.44,-0.018c-20.471,-0.118 -40.795,0.71 -61.035,10.704c-1.391,0.66 -2.783,1.314 -4.175,1.965c-0.838,0.395 -1.676,0.796 -2.513,1.205c-2.798,1.355 -5.6,2.356 -8.42,3.215c0.039,-2.169 0.078,-4.338 0.117,-6.572c0.307,-21.572 0.307,-21.572 -2.674,-40.899c-0.866,-3.983 -1.123,-7.193 -1.342,-11.85c-0.632,-0.068 -1.264,-0.136 -1.915,-0.206c-4.06,-1.552 -7.059,-8.853 -9.504,-18.229c-1.563,-6.514 -2.019,-11.641 -2.039,-19.595c-0.005,-1.706 -0.011,-3.411 -0.016,-5.168c-0.002,-1.843 -0.005,-3.687 -0.007,-5.586c-0.003,-1.9 -0.006,-3.8 -0.01,-5.758c-0.005,-4.027 -0.009,-8.053 -0.011,-12.08c-0.005,-6.137 -0.023,-12.273 -0.04,-18.41c-0.004,-3.915 -0.007,-7.829 -0.009,-11.744c-0.007,-1.827 -0.014,-3.654 -0.021,-5.536c0.011,-11.87 0.246,-22.201 2.954,-31.618c0.569,-1.354 0.569,-1.354 1.149,-2.736c0.379,-0.932 0.758,-1.865 1.149,-2.826c4.633,-9.533 12.685,-3.04 17.987,-1.519Z" style="fill:#ad7128;fill-rule:nonzero;"/><path d="M681.127,211.848l0,556.964l-89.117,0c-0.337,-101.057 -0.337,-101.057 -0.408,-143.37c-0.016,-9.668 -0.033,-19.337 -0.051,-29.005c-0.002,-1.212 -0.004,-2.423 -0.007,-3.672c-0.036,-19.551 -0.102,-39.101 -0.179,-58.651c-0.078,-20.071 -0.125,-40.141 -0.141,-60.214c-0.011,-12.382 -0.048,-24.76 -0.116,-37.14c-0.049,-9.502 -0.055,-19 -0.043,-28.502c-0.002,-3.892 -0.019,-7.785 -0.051,-11.676c-0.224,-28.657 -0.224,-28.657 1.809,-36.114c1.962,-4.932 4.117,-7.951 6.51,-10.627c1.533,-1.817 2.9,-4.341 4.302,-6.906c1.033,-1.78 2.067,-3.559 3.1,-5.336c1.16,-1.998 2.319,-3.995 3.479,-5.993c0.874,-1.505 0.874,-1.505 1.766,-3.041c2.813,-4.844 5.624,-9.698 8.436,-14.551c1.114,-1.923 2.228,-3.845 3.342,-5.767c0.827,-1.427 0.827,-1.427 1.671,-2.884c18.38,-31.721 18.38,-31.721 20.052,-34.605c1.113,-1.921 2.226,-3.842 3.339,-5.763c2.798,-4.83 5.597,-9.657 8.396,-14.48c0.558,-0.962 1.116,-1.924 1.691,-2.915c1.111,-1.916 2.223,-3.83 3.335,-5.743c2.832,-4.881 5.655,-9.805 8.465,-14.797c0.563,-0.997 1.126,-1.994 1.707,-3.022c1.075,-1.906 2.148,-3.821 3.218,-5.746c0.478,-0.847 0.957,-1.695 1.45,-2.568c0.42,-0.751 0.839,-1.501 1.271,-2.275c1.102,-1.6 1.102,-1.6 2.773,-1.6Z" style="fill-rule:nonzero;"/><path d="M605.934,828.134c8.912,0 8.912,0 10.848,4.062c0.629,2.716 0.629,2.716 1.197,5.722c0.481,2.131 0.964,4.257 1.449,6.379c0.246,1.128 0.491,2.255 0.745,3.417c1.418,6.185 3.071,11.793 4.699,17.496c2.498,8.907 4.963,17.882 7.38,26.983c0.253,0.951 0.505,1.901 0.766,2.88c1.05,3.975 2.047,7.955 2.994,12.156c0.184,-26.101 0.368,-52.203 0.557,-79.095l8.912,0l0,123.587c-8.912,0 -8.912,0 -11.292,-5.375c-0.605,-2.369 -1.18,-4.805 -1.728,-7.293c-0.317,-1.28 -0.634,-2.559 -0.96,-3.878c-0.637,-2.581 -1.263,-5.188 -1.876,-7.82c-1.164,-4.973 -2.414,-9.697 -3.673,-14.462c-0.431,-1.678 -0.862,-3.356 -1.305,-5.085c-2.052,-7.921 -4.202,-15.611 -6.346,-23.315c-0.296,-1.068 -0.592,-2.137 -0.897,-3.237c-0.397,-1.426 -0.397,-1.426 -0.803,-2.882c-0.64,-2.454 -0.64,-2.454 -1.197,-5.75c-0.184,26.101 -0.368,52.203 -0.557,79.095l-8.912,0l0,-123.587Z" style="fill:#ad7128;fill-rule:nonzero;"/><path d="M179.842,828.134c4.94,-0.306 9.879,-0.612 14.969,-0.927c2.323,-0.203 2.323,-0.203 4.693,-0.409c1.242,-0.043 2.485,-0.081 3.727,-0.112c0.949,-0.114 0.949,-0.114 1.918,-0.23c3.692,-0.011 5.645,1.459 8.426,8.875c0.827,2.536 1.651,5.08 2.471,7.634c0.412,0.885 0.824,1.769 1.248,2.681c0.98,2.262 0.98,2.262 1.303,6.547c0.055,5.543 0.09,11.076 0.094,16.622c0.027,1.911 0.055,3.821 0.083,5.79c0.032,13.845 0.032,13.845 -1.444,20.225c-1.119,3.315 -2.272,6.2 -3.513,9.104c-0.751,2.173 -1.496,4.364 -2.228,6.591c1.265,5.081 2.53,10.162 3.794,15.242c0.358,1.438 0.716,2.876 1.085,4.358c0.346,1.391 0.693,2.783 1.05,4.216c0.318,1.277 0.636,2.554 0.963,3.87c0.606,2.423 1.225,4.817 1.858,7.18c0.719,3.033 0.719,3.033 0.719,6.329c-8.83,3.655 -8.83,3.655 -11.631,-2.187c-2.463,-7.644 -4.187,-17.194 -5.759,-26.609c-1.469,-7.936 -1.469,-7.936 -4.075,-12.079c-1.668,-0.505 -3.244,-0.559 -4.921,-0.424c-1.953,0.034 -3.906,0.068 -5.918,0.103l0,41.196l-8.912,0l0,-123.587Zm8.912,21.422l0,39.548c2.488,0.19 4.974,0.353 7.462,0.453c0.846,0.041 1.691,0.097 2.536,0.169c1.218,0.1 2.436,0.147 3.654,0.183c0.732,0.043 1.464,0.086 2.219,0.131c2.441,-1.169 3.237,-3.477 4.737,-9.174c0.458,-5.153 0.458,-5.153 0.383,-10.608c0.02,-2.699 0.02,-2.699 0.041,-5.452c-0.448,-5.665 -1.003,-9.437 -2.481,-13.384c-3.05,-4.426 -6.801,-2.833 -10.127,-2.483c-0.817,0.05 -1.633,0.095 -2.45,0.135c-1.993,0.1 -3.981,0.293 -5.975,0.483Z" style="fill-rule:nonzero;"/><path d="M273.972,828.134c8.355,0 8.355,0 10.722,5.973c0.714,2.914 1.409,5.871 2.089,8.857c0.695,2.681 1.406,5.318 2.119,7.957c0.786,2.917 1.561,5.858 2.335,8.804c2.063,7.818 4.184,15.494 6.308,23.166c2.215,8.019 4.354,16.155 6.505,24.337c0.184,-26.101 0.368,-52.203 0.557,-79.095l8.355,0l0,123.587c-8.355,0 -8.355,0 -10.295,-3.875c-0.625,-2.67 -0.625,-2.67 -1.262,-5.394c-0.239,-0.963 -0.477,-1.927 -0.723,-2.919c-0.501,-2.024 -0.991,-4.071 -1.471,-6.14c-0.952,-4.034 -1.983,-7.847 -3.023,-11.683c-0.772,-2.849 -1.532,-5.721 -2.289,-8.604c-1.6,-6.091 -3.207,-12.166 -4.817,-18.235c-0.245,-0.928 -0.49,-1.856 -0.743,-2.812c-0.354,-1.335 -0.354,-1.335 -0.715,-2.697c-0.203,-0.768 -0.406,-1.536 -0.615,-2.327c-1.169,-4.301 -2.372,-8.521 -3.566,-12.761c-0.184,25.558 -0.368,51.115 -0.557,77.448l-8.912,0l0,-123.587Z" style="fill-rule:nonzero;"/><path d="M434.94,828.134c4.848,-0.306 9.696,-0.612 14.69,-0.927c1.52,-0.135 3.039,-0.27 4.605,-0.409c1.22,-0.043 2.439,-0.081 3.659,-0.112c0.621,-0.076 1.242,-0.152 1.882,-0.23c3.66,-0.011 5.578,1.527 8.333,8.875c0.829,2.537 1.656,5.081 2.479,7.634c0.412,0.886 0.823,1.773 1.247,2.686c0.981,2.258 0.981,2.258 1.331,6.464c0.09,5.47 0.158,10.914 0.172,16.391c0.009,2.915 0.009,2.915 0.017,5.889c-0.097,10.367 -0.292,18.055 -2.736,25.841c-1.243,3.233 -2.525,6.062 -3.931,8.641c0.889,8.421 2.646,14.577 4.456,21.422c3.652,13.811 3.652,13.811 4.456,21.422c-3.526,1.883 -7.132,3.639 -10.583,0c-3.749,-9.372 -5.854,-23.813 -8.174,-36.355c-2.148,-5.298 -4.576,-4.481 -7.282,-4.532c-1.884,-0.102 -3.768,-0.204 -5.709,-0.309l0,41.196l-8.912,0l0,-123.587Zm8.912,21.422l0,39.548c2.409,0.19 4.815,0.353 7.224,0.453c0.819,0.041 1.637,0.097 2.455,0.169c1.18,0.1 2.358,0.147 3.538,0.183c0.709,0.043 1.418,0.086 2.148,0.131c2.406,-1.184 3.205,-3.553 4.686,-9.174c0.459,-5.59 0.459,-5.59 0.383,-11.535c0.02,-2.957 0.02,-2.957 0.041,-5.973c-0.433,-5.681 -0.881,-8.86 -2.499,-12.335c-3.063,-3.541 -6.589,-2.275 -9.831,-1.98c-0.79,0.041 -1.58,0.079 -2.369,0.113c-1.927,0.083 -3.85,0.245 -5.777,0.402Z" style="fill-rule:nonzero;"/><path d="M322.987,828.134c7.479,-0.663 7.479,-0.663 15.108,-1.339c1.557,-0.195 3.115,-0.39 4.719,-0.591c11.858,-0.907 11.858,-0.907 16.207,10.259c3.803,11.686 4.054,26.449 4.021,41.965c-0.016,1.739 -0.033,3.478 -0.049,5.27c-0.042,5.301 -0,10.556 0.049,15.856c0.034,15.89 -0.315,30.698 -4.021,43.02c-4.504,12.602 -10.351,11.705 -16.207,11.225c-1.557,-0.21 -3.115,-0.42 -4.719,-0.636c-7.479,-0.714 -7.479,-0.714 -15.108,-1.442l0,-123.587Zm8.355,21.422l0,79.095c4.446,0.255 4.446,0.255 8.981,0.515c0.929,0.075 1.858,0.15 2.816,0.227c0.745,0.024 1.491,0.045 2.236,0.062c0.38,0.042 0.76,0.084 1.151,0.128c2.117,0.006 3.272,-1.063 5.111,-4.24c1.793,-6.198 1.913,-10.906 1.871,-18.725c0.003,-1.318 0.006,-2.636 0.01,-3.994c0.002,-2.78 -0.004,-5.559 -0.018,-8.339c-0.018,-4.238 -0,-8.465 0.021,-12.703c-0.002,-2.709 -0.006,-5.418 -0.013,-8.126c0.007,-1.257 0.014,-2.514 0.02,-3.808c-0.059,-6.681 -0.382,-10.859 -1.891,-15.963c-1.925,-4.938 -3.784,-5.424 -6.262,-5.094c-0.537,0.015 -0.537,0.015 -1.085,0.03c-1.323,0.051 -2.645,0.189 -3.967,0.317c-2.964,0.204 -5.928,0.408 -8.981,0.618Z" style="fill-rule:nonzero;"/><path d="M654.949,828.134c4.997,-0.408 9.994,-0.816 15.143,-1.236c2.344,-0.27 2.344,-0.27 4.735,-0.546c11.136,-0.736 11.136,-0.736 14.971,8.863c1.34,4.002 2.475,8.107 3.583,12.692c0.276,0.816 0.276,0.816 0.557,1.648c0.423,11.054 0.39,22.333 0.47,33.445c0.034,3.76 0.083,7.519 0.148,11.276c0.578,34.031 0.578,34.031 -2.627,46.462c-3.784,11.495 -8.142,12.731 -13.374,13.075c-2.841,-0.021 -5.656,-0.397 -8.498,-0.753c-4.986,-0.442 -9.971,-0.884 -15.108,-1.339l0,-123.587Zm8.355,21.422l0,79.095c3.056,0.204 6.111,0.408 9.26,0.618c0.958,0.09 1.916,0.18 2.904,0.273c0.768,0.029 1.537,0.054 2.305,0.075c0.392,0.051 0.784,0.101 1.187,0.153c2.193,0.007 3.579,-1.091 5.203,-5.299c1.695,-5.753 1.916,-11.443 1.884,-18.883c0.005,-1.239 0.009,-2.478 0.014,-3.754c0.005,-2.608 0.001,-5.216 -0.011,-7.823c-0.014,-3.968 0.011,-7.922 0.04,-11.888c0.116,-15.12 0.116,-15.12 -1.894,-28.563c-3.255,-7.327 -8.082,-5.164 -11.945,-4.725c-2.952,0.238 -5.905,0.476 -8.947,0.721Z" style="fill:#ad7128;fill-rule:nonzero;"/><path d="M145.723,827.329c0.939,0.017 0.939,0.017 1.896,0.035c1.992,0.046 3.984,0.149 5.975,0.254c1.353,0.041 2.707,0.079 4.06,0.113c3.312,0.091 6.623,0.233 9.934,0.402l0,21.422c-0.708,-0.002 -1.416,-0.004 -2.146,-0.006c-2.635,0.006 -5.269,0.077 -7.904,0.167c-1.139,0.03 -2.278,0.042 -3.416,0.037c-1.64,-0.005 -3.279,0.054 -4.919,0.124c-0.507,-0.015 -1.013,-0.03 -1.535,-0.045c-2.446,0.165 -4.138,0.7 -6.022,5.567c-1.648,5.789 -1.827,11.619 -1.774,18.983c-0.003,1.87 -0.003,1.87 -0.006,3.778c0,2.622 0.009,5.243 0.025,7.865c0.022,4.002 0.012,7.995 -0.003,11.997c0.004,2.557 0.01,5.113 0.018,7.669c-0.004,1.188 -0.008,2.376 -0.012,3.6c0.058,6.128 0.362,9.312 1.571,14.341c1.998,4.171 3.134,4.432 5.566,4.465c0.373,0.008 0.745,0.016 1.129,0.024c0.785,0.006 1.569,-0.009 2.354,-0.044c1.196,-0.044 2.39,-0 3.586,0.052c0.765,-0.005 1.53,-0.016 2.295,-0.032c1.037,-0.014 1.037,-0.014 2.094,-0.028c2.345,-1.346 3.173,-3.844 4.642,-9.305c0.448,-4.731 0.448,-4.731 0.453,-9.578c0.052,-4.231 0.052,-4.231 0.104,-8.548l-11.14,0l0,-21.422l19.494,0c0.121,12.286 0.121,12.286 0.244,24.82c0.035,2.562 0.071,5.124 0.108,7.763c0.078,16.282 0.078,16.282 -1.099,22.367c-0.996,2.992 -1.992,5.241 -3.151,7.667c-0.266,0.804 -0.532,1.609 -0.806,2.438c-2.76,8.093 -4.978,8.97 -8.78,8.936c-0.539,0.021 -1.078,0.042 -1.633,0.064c-1.136,0.028 -2.271,0.031 -3.407,0.009c-1.728,-0.016 -3.45,0.1 -5.177,0.226c-8.017,0.226 -8.017,0.226 -10.966,-4.965c-1.236,-3.689 -2.189,-7.437 -3.206,-11.651c-0.49,-0.879 -0.979,-1.758 -1.484,-2.664c-2.091,-6.314 -1.732,-13.256 -1.73,-21.77c-0.007,-1.752 -0.013,-3.503 -0.02,-5.308c-0.009,-3.706 -0.011,-7.413 -0.006,-11.12c0.002,-5.649 -0.034,-11.287 -0.073,-16.934c-0.004,-3.607 -0.006,-7.214 -0.005,-10.82c-0.014,-1.677 -0.029,-3.355 -0.043,-5.083c0.05,-9.16 0.424,-14.233 2.629,-20.881c0.794,-2.004 1.595,-3.985 2.403,-5.936c0.267,-0.861 0.533,-1.722 0.808,-2.608c2.545,-7.936 5.655,-6.676 9.074,-6.435Z" style="fill-rule:nonzero;"/><path d="M389.268,828.134c4.997,-0.408 9.994,-0.816 15.143,-1.236c2.344,-0.27 2.344,-0.27 4.735,-0.546c11.821,-0.815 11.821,-0.815 15.887,10.233c2.708,8.605 3.565,17.549 3.576,29.323c-0.036,2.047 -0.071,4.093 -0.108,6.202c0.014,2.066 0.028,4.131 0.042,6.26c-0.064,8.778 -0.196,14.919 -2.081,21.925c-1.391,3.71 -2.816,6.985 -4.332,10.23c-0.258,0.864 -0.515,1.728 -0.78,2.618c-1.118,2.92 -1.652,2.928 -3.125,2.887c-0.446,-0 -0.892,-0.001 -1.351,-0.001c-0.479,-0.026 -0.957,-0.051 -1.451,-0.077c-0.738,-0.01 -0.738,-0.01 -1.491,-0.021c-1.572,-0.028 -3.144,-0.09 -4.716,-0.153c-1.066,-0.025 -2.131,-0.047 -3.197,-0.068c-2.613,-0.05 -5.225,-0.147 -7.838,-0.241l0,36.252l-8.912,0l0,-123.587Zm8.912,21.422l0,42.843c2.478,0.19 4.953,0.354 7.431,0.453c0.842,0.041 1.683,0.097 2.525,0.169c1.214,0.101 2.427,0.147 3.642,0.183c0.729,0.043 1.458,0.086 2.21,0.131c2.655,-1.232 3.514,-3.474 5.357,-9.174c0.527,-5.902 0.527,-5.902 0.418,-12.256c0.009,-2.105 0.017,-4.21 0.026,-6.379c-0.44,-6.028 -0.899,-10.004 -2.485,-14.163c-3.139,-4.359 -7.028,-2.771 -10.422,-2.425c-0.843,0.05 -1.687,0.095 -2.53,0.135c-2.059,0.1 -4.113,0.293 -6.173,0.483Z" style="fill-rule:nonzero;"/><path d="M239.996,828.134l11.697,0c0.406,2.785 0.813,5.57 1.231,8.439c0.587,4.019 1.175,8.038 1.762,12.056c0.155,1.064 0.311,2.128 0.471,3.224c2.139,14.627 4.295,29.229 6.469,43.81c0.227,1.524 0.454,3.048 0.688,4.618c1.13,7.585 2.262,15.169 3.397,22.748c0.418,2.805 0.836,5.611 1.255,8.417c0.193,1.287 0.387,2.574 0.586,3.9c0.178,1.194 0.355,2.388 0.538,3.619c0.155,1.036 0.31,2.073 0.47,3.141c0.399,3.025 0.399,3.025 0.956,9.616l-10.026,0c-1.47,-10.332 -2.941,-20.664 -4.456,-31.309c-6.249,-0.544 -12.499,-1.088 -18.937,-1.648c-0.184,2.719 -0.368,5.438 -0.557,8.239c-0.421,3.204 -0.421,3.204 -0.907,6.212c-0.157,0.983 -0.314,1.966 -0.476,2.979c-0.198,1.215 -0.397,2.431 -0.601,3.683c-0.632,3.908 -1.264,7.817 -1.915,11.844l-10.026,0c2.349,-18.858 5.116,-37.033 7.937,-55.305c0.455,-2.957 0.91,-5.915 1.364,-8.873c0.677,-4.406 1.354,-8.812 2.033,-13.217c2.366,-15.374 4.707,-30.782 7.047,-46.191Zm5.57,28.013c-1.023,6.555 -2.043,13.112 -3.063,19.671c-0.292,1.872 -0.584,3.745 -0.886,5.674c-0.276,1.779 -0.553,3.558 -0.838,5.391c-0.385,2.472 -0.385,2.472 -0.778,4.995c-0.6,3.375 -0.6,3.375 -0.562,5.465l12.254,0c-0.712,-5.268 -4.433,-32.785 -5.57,-41.196l-0.557,0Z" style="fill-rule:nonzero;"/><path d="M746.851,828.134l11.697,0c0.633,4.284 1.267,8.569 1.919,12.983c0.868,5.869 1.737,11.737 2.607,17.605c0.337,2.278 0.337,2.278 0.681,4.603c2.378,16.058 4.764,32.103 7.221,48.057c0.274,1.783 0.274,1.783 0.554,3.601c0.854,5.547 1.713,11.087 2.577,16.62c0.301,1.945 0.601,3.889 0.911,5.892c0.263,1.684 0.526,3.368 0.797,5.104c0.557,4.178 0.557,4.178 0.557,9.122l-9.469,0c-4.456,-26.009 -4.456,-26.009 -4.456,-32.956l-19.494,0c-0.184,2.719 -0.368,5.438 -0.557,8.239c-0.533,4.034 -1.082,7.986 -1.671,11.947c-0.152,1.049 -0.304,2.099 -0.461,3.18c-1.131,7.711 -1.131,7.711 -1.767,9.591c-1.594,0.121 -3.175,0.152 -4.769,0.103c-0.449,-0.007 -0.898,-0.015 -1.361,-0.023c-1.113,-0.019 -2.226,-0.049 -3.339,-0.08c0.372,-7.914 1.431,-14.54 2.55,-21.724c0.202,-1.319 0.405,-2.638 0.613,-3.997c0.435,-2.833 0.871,-5.664 1.308,-8.494c1.145,-7.414 2.281,-14.841 3.418,-22.267c0.228,-1.49 0.456,-2.98 0.691,-4.515c2.13,-13.937 4.203,-27.945 6.249,-41.991c0.233,-1.599 0.233,-1.599 0.471,-3.231c0.843,-5.786 1.683,-11.576 2.523,-17.367Zm5.57,28.013c-0.932,6.244 -1.859,12.493 -2.785,18.744c-0.266,1.78 -0.531,3.56 -0.805,5.394c-0.251,1.699 -0.503,3.399 -0.762,5.149c-0.233,1.571 -0.467,3.141 -0.707,4.759c-0.579,3.675 -0.579,3.675 -0.511,7.149l11.697,0c-1.229,-11.227 -1.229,-11.227 -2.687,-22.046c-0.171,-1.142 -0.341,-2.283 -0.517,-3.46c-0.172,-1.133 -0.344,-2.266 -0.521,-3.434c-0.178,-1.191 -0.357,-2.381 -0.541,-3.608c-0.433,-2.885 -0.868,-5.767 -1.304,-8.648l-0.557,0Z" style="fill:#ad7128;fill-rule:nonzero;"/><path d="M509.019,828.134c8.75,-1.972 8.75,-1.972 11.325,2.008c1.029,3.515 1.784,7.191 2.6,11.174c0.865,3.489 1.753,6.921 2.643,10.357c1.367,5.292 2.704,10.65 4.041,16.008c3.131,-11.125 6.14,-22.418 9.051,-34.051c0.975,-3.849 0.975,-3.849 1.532,-5.497c0.789,-0.143 1.579,-0.176 2.369,-0.161c0.713,0.008 0.713,0.008 1.441,0.016c0.75,0.021 0.75,0.021 1.515,0.042c0.502,0.007 1.004,0.015 1.522,0.023c1.245,0.019 2.49,0.047 3.735,0.08c-1.407,7.662 -2.867,14.177 -4.804,20.804c-2.087,7.235 -4.101,14.593 -6.057,22.143c-0.235,0.903 -0.469,1.806 -0.711,2.736c-2.095,6.897 -2.095,6.897 -2.799,15.197c0.508,3.856 1.139,6.526 2.01,9.764c0.322,1.208 0.644,2.416 0.975,3.661c0.345,1.275 0.69,2.55 1.046,3.863c0.711,2.665 1.422,5.329 2.132,7.995c0.352,1.313 0.704,2.627 1.067,3.98c1.406,5.25 2.796,10.533 4.181,15.833c0.427,1.625 0.854,3.25 1.295,4.924c1.023,4.108 1.921,8.265 2.778,12.687c-9.195,2.74 -9.195,2.74 -12.186,-3.167c-1.047,-3.858 -1.953,-7.74 -2.798,-12.009c-0.947,-4.568 -2.045,-8.782 -3.132,-13.065c-1.223,-4.823 -2.413,-9.714 -3.606,-14.602c-2.358,6.677 -4.4,13.892 -6.44,21.422c-0.314,1.151 -0.628,2.303 -0.952,3.489c-0.307,1.126 -0.614,2.252 -0.93,3.412c-0.299,1.078 -0.599,2.155 -0.907,3.265c-0.884,3.223 -0.884,3.223 -1.795,7.928c-1.694,4.585 -2.951,4.178 -5.187,4.052c-0.486,-0.069 -0.972,-0.138 -1.473,-0.209c-0.495,-0.037 -0.989,-0.074 -1.499,-0.113c-1.219,-0.097 -2.435,-0.232 -3.653,-0.402c1.821,-8.372 3.84,-16.171 5.918,-23.996c0.693,-2.63 1.387,-5.261 2.08,-7.892c1.253,-4.743 2.512,-9.471 3.777,-14.187c0.508,-1.91 1.015,-3.819 1.523,-5.729c0.447,-1.663 0.893,-3.326 1.353,-5.04c1.1,-3.978 1.1,-3.978 0.944,-9.069c-0.921,-4.262 -0.921,-4.262 -2.158,-8.857c-0.224,-0.861 -0.447,-1.722 -0.677,-2.609c-0.477,-1.834 -0.956,-3.664 -1.436,-5.491c-0.736,-2.798 -1.467,-5.606 -2.197,-8.418c-2.598,-10.008 -2.598,-10.008 -5.209,-19.986c-0.305,-1.175 -0.61,-2.349 -0.925,-3.56c-0.26,-0.992 -0.52,-1.984 -0.788,-3.006c-0.535,-2.452 -0.535,-2.452 -0.535,-5.748Z" style="fill-rule:nonzero;"/><path d="M573.072,828.134l25.621,0l0,21.422l-8.355,0l0,79.095l8.355,0l0,23.07l-25.621,0l0,-23.07l8.355,0l0,-79.095l-8.355,0l0,-21.422Z" style="fill:#ad7128;fill-rule:nonzero;"/><path d="M479.499,828.134l25.621,0l0,21.422l-8.355,0l0,79.095l8.355,0l0,23.07l-25.621,0l0,-23.07l8.355,0l0,-79.095l-8.355,0l0,-21.422Z" style="fill-rule:nonzero;"/><path d="M701.178,828.134l25.064,0l0,21.422l-8.355,0l0,79.095l8.355,0l0,23.07l-25.064,0l0,-23.07l7.798,0l0,-79.095l-7.798,0l0,-21.422Z" style="fill:#ad7128;fill-rule:nonzero;"/><path d="M819.816,882.512l5.57,0c2.609,16.258 4.959,32.757 7.241,49.435c0.2,-1.439 0.399,-2.878 0.605,-4.361c0.739,-5.323 1.479,-10.645 2.22,-15.966c0.321,-2.306 0.641,-4.612 0.961,-6.92c0.459,-3.311 0.92,-6.619 1.381,-9.927c0.277,-1.993 0.554,-3.987 0.84,-6.041c0.677,-4.574 0.677,-4.574 1.234,-6.222c0.855,-0.154 1.712,-0.194 2.569,-0.187c0.546,0 1.093,0 1.656,0c0.594,0.009 1.188,0.017 1.8,0.026c0.907,0.003 0.907,0.003 1.833,0.007c1.941,0.009 3.882,0.03 5.823,0.051c1.312,0.008 2.625,0.016 3.937,0.023c3.225,0.018 6.45,0.046 9.674,0.08l0,13.183l-8.355,0l0,56.026l-5.013,0l0,-56.026l-8.355,0c-0.276,-3.263 -0.276,-3.263 -0.557,-6.591c-2.941,20.664 -5.882,41.327 -8.912,62.617l-6.684,0c-2.049,-13.127 -3.983,-26.37 -5.851,-39.729c-0.457,-3.267 -0.918,-6.53 -1.378,-9.792c-0.292,-2.084 -0.584,-4.169 -0.876,-6.253c-0.262,-1.869 -0.525,-3.739 -0.795,-5.665c-0.569,-4.473 -0.569,-4.473 -0.569,-7.769Z" style="fill-rule:nonzero;"/><path d="M930.655,882.512c4.291,-0.357 4.291,-0.357 8.668,-0.721c1.343,-0.158 1.343,-0.158 2.712,-0.318c6.574,-0.265 6.574,-0.265 8.934,5.41c2.288,8.794 1.973,19.641 1.895,30.234c0.015,2.052 0.03,4.104 0.046,6.218c-0.022,8.852 -0.062,16.794 -1.941,24.016c-3.196,7.683 -7.787,5.544 -11.647,5.092c-2.86,-0.238 -5.721,-0.476 -8.668,-0.721l0,-69.209Zm5.013,13.183l0,42.843c2.43,0.153 2.43,0.153 4.908,0.309c0.508,0.045 1.016,0.09 1.54,0.136c0.403,0.012 0.806,0.025 1.221,0.037c0.617,0.039 0.617,0.039 1.246,0.078c1.458,-0.737 1.926,-1.96 2.781,-5.505c0.256,-3.571 0.256,-3.571 0.222,-7.518c0.002,-1.449 0.004,-2.897 0.007,-4.39c-0.006,-1.508 -0.013,-3.016 -0.02,-4.57c0.006,-1.508 0.013,-3.016 0.02,-4.57c-0.003,-2.173 -0.003,-2.173 -0.007,-4.39c-0.002,-1.323 -0.004,-2.647 -0.006,-4.01c-0.272,-4.414 -0.656,-5.869 -1.887,-8.452c-1.127,-0.677 -1.127,-0.677 -2.356,-0.483c-0.604,0.019 -0.604,0.019 -1.221,0.037c-0.508,0.045 -1.016,0.09 -1.54,0.136c-2.43,0.153 -2.43,0.153 -4.908,0.309Z" style="fill-rule:nonzero;"/><path d="M797.536,882.512c2.769,-0.204 5.537,-0.408 8.39,-0.618c0.866,-0.09 1.732,-0.18 2.624,-0.273c6.361,-0.227 6.361,-0.227 8.727,5.004c1.839,6.007 2.011,11.829 1.912,19.677c0.015,1.195 0.03,2.39 0.046,3.621c-0.03,7.107 -0.56,11.621 -2.115,17.093c-2.206,5.811 -4.138,6.142 -7.016,5.944c-0.552,-0.097 -1.104,-0.193 -1.672,-0.293c-0.567,-0.052 -1.134,-0.104 -1.718,-0.158c-1.389,-0.135 -2.778,-0.342 -4.165,-0.563l0,19.774l-5.013,0l0,-69.209Zm5.013,13.183l0,21.422c1.648,0.089 3.295,0.154 4.943,0.206c0.703,0.041 0.703,0.041 1.421,0.084c0.673,0.016 0.673,0.016 1.36,0.032c0.414,0.017 0.828,0.035 1.255,0.052c1.183,-0.1 1.183,-0.1 2.161,-3.67c0.198,-3.523 0.198,-3.523 0.174,-7.415c0.009,-1.308 0.019,-2.617 0.028,-3.965c-0.067,-1.139 -0.134,-2.277 -0.202,-3.45c-1.697,-3.347 -2.006,-3.702 -3.905,-3.617c-0.422,0.011 -0.844,0.021 -1.278,0.032c-0.438,0.028 -0.875,0.055 -1.326,0.084c-0.444,0.015 -0.888,0.03 -1.346,0.045c-1.095,0.039 -2.19,0.098 -3.284,0.161Z" style="fill-rule:nonzero;"/><path d="M888.325,882.512l5.57,0l0,56.026l13.925,0l0,13.183l-19.494,0l0,-69.209Z" style="fill-rule:nonzero;"/><path d="M906.148,882.512l21.722,0l0,13.183l-8.355,0l0,56.026l-5.013,0l0,-56.026l-8.355,0l0,-13.183Z" style="fill-rule:nonzero;"/><rect x="869.387" y="936.89" width="5.013" height="14.83" style="fill-rule:nonzero;"/></g></svg>